<?xml version="1.0" encoding="utf-8"?>
<!DOCTYPE svg PUBLIC "-//W3C//DTD SVG 1.0//EN" "http://www.w3.org/TR/2001/REC-SVG-20010904/DTD/svg10.dtd">
<svg version="1.0" xmlns="http://www.w3.org/2000/svg" width="482px" height="517px" viewBox="0 0 482 517" preserveAspectRatio="xMidYMid meet">
 <g fill="#f5d570">
  <path d="M94.8 470.3 c-4.9 -5.4 -7.4 -17.3 -9.9 -47.3 -2.4 -27.6 -2.4 -27.9 -3.1 -24 -0.4 1.9 -1 7.3 -1.3 12 -1.7 24.4 -2 25.7 -4.6 20.8 -0.8 -1.4 -1.4 -1.8 -1.7 -1 -0.2 0.6 -0.8 1.2 -1.4 1.2 -1.3 0 -0.3 -30.1 1.3 -39.5 1.8 -10.7 2.2 -19.7 1 -20.4 -1.6 -1 1.8 -15.1 3.6 -15.1 1.4 0 1.9 -5.6 0.4 -6.2 -1 -0.4 3.8 -24 6.4 -31.3 2.1 -6 9.4 -21.3 13.1 -27.5 1.5 -2.5 3.2 -5.4 3.8 -6.5 3 -5.4 11.3 -15.4 12.9 -15.5 2.2 0 7.7 -8.5 7.7 -11.8 0 -1.3 2 -6.6 4.5 -11.6 2.5 -5.1 4.5 -9.8 4.5 -10.4 0 -0.7 0.4 -1.2 0.9 -1.2 0.5 0 1.4 -1.2 2 -2.7 5.3 -13.8 36.8 -59.1 49.5 -71.1 5.3 -5.1 5.6 -5.2 11.5 -5.2 5.4 0 6 0.2 6.4 2.3 0.3 1.6 0.5 1.4 0.6 -0.9 0.2 -4.7 2 -5.7 7.1 -3.9 2.3 0.8 5.8 1.5 7.7 1.5 4.6 0 12.4 2 14.4 3.6 0.8 0.8 2.5 1.4 3.7 1.4 1.1 0 2.5 0.6 2.9 1.4 0.4 0.8 2.4 2.1 4.4 2.9 2.4 1 5 3.5 7.9 7.6 2.4 3.4 4.7 6.1 5.2 6.1 0.5 0 0.8 0.6 0.7 1.3 -0.3 2.6 0.2 3.7 1.6 3.7 1.2 0 1.4 0.7 0.9 2.6 -0.5 1.8 0 3.4 1.3 5.2 1.1 1.5 2.3 4 2.7 5.5 0.4 1.6 1.9 4 3.3 5.3 1.4 1.3 2.1 2.4 1.5 2.4 -1.4 0 -6.2 -4.7 -5.5 -5.4 0.8 -0.8 -4 -5.6 -5.6 -5.6 -1 0 -0.4 1.1 1.4 3 2.2 2.3 2.6 3.3 1.7 4.2 -0.9 0.9 -0.5 1.9 1.9 4.4 2.6 2.7 3.1 4 3.2 8.5 0 3 -0.5 7.4 -1.2 9.9 -1.2 4.3 -1.1 8.5 0.4 15.7 0.5 2.4 0.2 4.2 -1.3 6.7 -1.1 1.8 -2.3 4.8 -2.7 6.5 -0.4 1.7 -1.1 3.1 -1.6 3.1 -0.5 0 -0.9 1.4 -0.9 3 0 1.7 0.4 3 0.9 3 1.7 0 2.4 12.6 1.2 19.7 -2.3 13 -6 17 -6.2 6.6 l-0.1 -5.8 -1.4 6.4 c-1.9 8.7 -3.6 10.4 -9.7 9.8 l-4.7 -0.4 -0.6 3.9 c-0.4 2.1 -1.1 4.1 -1.5 4.4 -0.5 0.3 -0.9 1 -0.9 1.6 0 0.6 0.8 0.4 1.8 -0.4 1.7 -1.6 8.3 -3.8 11.2 -3.8 0.9 0 1.6 0.9 1.6 2 0 1.3 -0.7 2 -2 2 -2.8 0 -9.5 7.7 -10.7 12.5 -1.7 6.6 -4 12.9 -5.1 14.2 -1.4 1.7 -0.6 7.8 2 14.1 l2.2 5.2 -2.5 0 c-1.4 0 -2.8 -0.7 -3.1 -1.5 -0.4 -0.9 -1.9 -1.5 -3.9 -1.5 -3.2 0 -3.3 -0.1 -4 -5.6 -0.4 -3.1 -0.4 -7.8 0 -10.5 0.7 -4.8 0.8 -4.9 4.1 -4.9 1.9 0 3.4 -0.4 3.4 -1 0 -0.5 -1.3 -1 -3 -1 -2.8 0 -3 -0.2 -3 -4 0 -3.9 0.1 -4 3.5 -4 2.9 0 3.5 0.4 3.6 2.3 0.1 2.1 0.1 2.1 0.8 -0.3 0.4 -1.4 1 -4.2 1.4 -6.2 l0.6 -3.8 -4.6 0 -4.6 0 0.7 -7.6 c0.3 -4.3 1 -8.2 1.5 -8.8 0.5 -0.6 1.9 -4.7 3.1 -9.1 1.2 -4.4 2.4 -8.9 2.7 -10 l0.6 -2 -2.1 2 c-1.1 1.1 -3.4 4.8 -5.2 8.3 -1.8 3.4 -3.6 6.2 -4.1 6.2 -0.5 0 -0.9 0.9 -0.9 2 0 1.1 -0.4 2 -1 2 -0.5 0 -1 1 -1 2.3 -0.1 2.9 -3.3 12.1 -4.9 14.1 -0.7 0.9 -1.6 3.9 -2 6.8 -0.6 5.1 -0.7 5.3 -3.9 5.6 -3.2 0.3 -3.3 0.5 -2.6 3.5 0.3 1.8 1 3.7 1.4 4.2 0.3 0.6 1.5 3.7 2.5 7 1.6 5.6 5.5 16.4 7.5 21 1.5 3.5 5 17.4 5 20 0 2.2 -0.2 2.4 -1.9 1.3 -1.1 -0.7 -2.2 -2.2 -2.6 -3.5 -0.5 -2.3 -2.5 -3.3 -2.5 -1.3 0 0.6 -0.7 1 -1.5 1 -0.8 0 -1.5 -0.7 -1.5 -1.5 0 -0.7 -1.6 -5 -3.5 -9.4 -1.9 -4.3 -3.5 -8.5 -3.5 -9.1 0 -0.7 -0.6 -2.6 -1.4 -4.3 -0.8 -1.8 -2.4 -6.6 -3.6 -10.7 -1.2 -4.1 -2.6 -8.8 -3.1 -10.4 -0.5 -1.6 -0.9 -4.9 -0.9 -7.2 0 -4 -0.2 -4.4 -2.5 -4.4 -2.3 0 -2.5 -0.4 -2.5 -4.5 0 -3.3 0.4 -4.5 1.5 -4.5 0.8 0 1.5 0.7 1.5 1.5 0 0.8 0.7 1.5 1.5 1.5 0.9 0 1.8 -0.7 2.1 -1.5 1.1 -2.7 3.4 -1.7 3.4 1.5 0 4.7 1.7 3.5 2.3 -1.7 0.3 -2.7 1.2 -5.2 2.2 -5.9 1.2 -0.9 1.7 -3 1.9 -7.6 0.3 -7.2 1.2 -9.2 9 -20.1 3.3 -4.6 4.7 -7.2 3.4 -6.3 -4.4 3.1 -17.8 1.5 -17.8 -2.1 0 -1.1 5.8 -3.3 8.8 -3.3 1.1 0 2.4 -0.4 2.7 -1 0.3 -0.5 1.7 -1 3 -1 6.5 0 28.5 -19.4 30.5 -27.1 0.6 -2 1.8 -4.4 2.9 -5.3 2.7 -2.4 6.9 -12.4 8.2 -19.1 0.9 -4.9 0.8 -5.9 -0.7 -7.6 -1.2 -1.3 -1.3 -1.9 -0.4 -1.9 0.8 0 1 -0.6 0.5 -1.7 -0.4 -1 -0.8 -2.7 -0.9 -3.8 -0.2 -2.8 -5.1 -3.2 -9.5 -0.8 -2.6 1.3 -3.5 1.5 -3.9 0.5 -0.2 -0.6 -0.8 -0.9 -1.4 -0.6 -0.7 0.5 -0.9 -0.2 -0.5 -1.8 0.6 -2.3 0.3 -2.6 -3 -3.3 -2.6 -0.5 -5.3 -2.3 -9.4 -6.4 -3.2 -3.2 -6.8 -6.1 -8 -6.4 -2.5 -0.7 -16.8 4.6 -18.1 6.6 -0.6 0.9 -1.1 0.7 -1.8 -0.5 -1.2 -2 -3.4 -1.5 -6.7 1.5 -2.6 2.4 -3 4.5 -0.8 5.3 0.8 0.4 1.5 1.5 1.5 2.5 0 3.2 -5 12.1 -7 12.6 -3.4 0.9 -5.4 9.4 -5.4 23 -0.1 6.8 -0.1 12.3 0 12.3 0 0 2.2 -3.1 4.9 -7 3.6 -5.3 5.4 -7 7.2 -7 1.2 0 2.3 0.4 2.3 0.8 0 0.7 -2.6 4.9 -12.3 20.2 -1.3 2 -1.9 5.4 -2.2 11.4 -0.2 4.7 -0.6 9 -1 9.5 -0.3 0.6 -0.2 1.1 0.4 1.1 0.6 0 0.8 0.6 0.5 1.4 -0.3 0.8 0.3 2.2 1.4 3.2 3.4 3.4 6.3 8.3 6.8 11.6 1.8 10.1 1.7 10.8 -0.5 10.8 -1.7 0 -2.1 -0.6 -2.2 -3.2 0 -1.8 -0.8 -4.9 -1.7 -6.8 -7 -14.4 -9.8 -13.2 -8.2 3.5 0.4 5 1.4 10.4 2 12 3.1 7.8 9 30.5 9 34.7 0 4.1 -0.3 4.8 -2 4.8 -1.7 0 -2 0.7 -2 5 0 3.7 0.4 5 1.5 5 1.1 0 1.4 1.3 1.3 6.3 -0.1 4 0.6 8.4 2 12.4 1.1 3.4 2.4 8.4 2.8 11 0.4 2.6 1 5 1.3 5.3 1 0.7 5.1 11.9 5.1 13.7 0 0.8 0.7 2.1 1.5 2.9 0.8 0.9 1.5 2.8 1.5 4.3 0 2 2 4.8 7.5 10.6 4.1 4.4 7.5 8.6 7.5 9.2 0 0.7 0.7 1.3 1.5 1.3 0.8 0 1.5 -0.9 1.5 -2 0 -1.3 0.7 -2 2 -2 1.3 0 2 0.7 2 2 0 1.1 -0.7 2 -1.5 2 -0.8 0 -2.4 0.9 -3.4 1.9 -1.1 1.1 -3.1 2.7 -4.5 3.6 -2.4 1.6 -2.6 1.6 -2.6 0.1 0 -0.9 -0.7 -1.6 -1.6 -1.6 -0.8 0 -3.9 -2.1 -6.7 -4.7 -2.9 -2.7 -6.1 -5.3 -7.2 -5.9 -1.1 -0.7 -1.9 -1.9 -1.7 -2.8 0.2 -0.9 -0.4 -1.6 -1.2 -1.6 -1 0 -1.3 -0.6 -0.9 -1.6 0.4 -1 0 -2.2 -1 -2.9 -1.9 -1.3 -15 -40.4 -17.7 -52.5 -1 -4.7 -2.2 -11.2 -2.6 -14.5 -0.4 -3.2 -1.9 -8.9 -3.5 -12.6 -1.5 -3.7 -3.3 -9.4 -3.9 -12.6 -1.5 -7.5 -2.8 -10.7 -6.2 -16.6 -3 -5.1 -3.6 -9.5 -1.6 -11.5 0.9 -0.9 0.7 -1.2 -1 -1.2 -1.8 0 -2.2 -0.6 -2.2 -3.5 0 -3.2 0.2 -3.5 3 -3.5 1.8 0 3.3 0.6 3.6 1.5 0.4 0.8 1.5 1.5 2.7 1.5 1.1 0 2.9 0.8 4 1.7 2 1.8 2 1.7 1.4 -3.7 -0.4 -3 -0.7 -7.6 -0.7 -10.2 0 -4.5 -0.1 -4.7 -3.2 -5 l-3.3 -0.3 0.3 -10.7 c0.4 -13.3 -0.8 -14 -6.7 -4 -2.1 3.7 -5.3 8.6 -7 10.9 -3.2 4.5 -3.8 6.7 -2 7.8 0.7 0.5 0.4 1.4 -0.7 2.6 -1.6 1.8 -1.6 1.9 0.4 1.9 1.9 0 2.2 0.6 2.2 3.9 0 4.7 -1.2 5.8 -4.2 3.7 -1.7 -1.2 -2.5 -1.3 -4.2 -0.3 -1.2 0.6 -2.3 1.2 -2.6 1.2 -1.7 0.2 -8.1 3.9 -9.3 5.3 -1.8 2.1 -4.1 11.7 -3.2 13.2 0.4 0.6 1.4 0.9 2.2 0.6 1.3 -0.5 1.4 0.3 0.8 5.6 -0.3 3.5 -1 7.7 -1.5 9.3 -1.8 6.3 -2.1 26.8 -0.6 38 0.8 6.1 1.8 13.9 2.1 17.3 0.4 3.5 1.3 7.6 2.1 9 0.8 1.5 1.4 3.3 1.4 4.1 0 0.8 1.6 6.6 3.6 12.8 2.1 6.8 3.4 12.9 3.2 15.1 -0.3 3.5 -0.5 3.7 -3.9 4 -2.1 0.2 -4 -0.2 -4.6 -1 -0.9 -1.1 -7.9 -21.2 -10.2 -29.3 -0.5 -1.6 -0.9 -7.9 -0.9 -14 -0.2 -13.2 -0.7 -16.1 -3.1 -16.8 -2.5 -0.6 -3.1 3.1 -3.1 19.5 0 13.8 -0.4 15.8 -2.9 15.8 -1.4 0 -1.6 1.4 -1.6 9.7 0 9.4 -0.1 9.8 -2.2 10.1 -1.8 0.3 -2.3 1 -2.3 3.3 0 2.5 0.4 2.9 2.9 2.9 l2.9 0 0.7 9.3 c0.3 5 1.5 14.4 2.6 20.8 2.1 12.5 2.3 16.5 1.2 17.2 -0.5 0.3 -4.2 0.8 -8.3 1.2 -6.6 0.6 -7.7 0.5 -9.2 -1.2z m18.8 -121.3 c1.1 0 1.4 -1.7 1.4 -7.4 0 -4.1 0.3 -8.3 0.6 -9.3 0.3 -1 -0.7 0.5 -2.3 3.2 -2.6 4.5 -2.9 5.6 -2.4 11.5 0.2 3.6 0.6 5.5 0.9 4.3 0.2 -1.3 1 -2.3 1.8 -2.3z m143.7 -103.2 c0.3 -4 0.4 -7.4 0.1 -7.7 -1.7 -1.7 -6.4 4.9 -7.9 11.1 -0.7 2.8 -0.8 2.7 6.1 3.7 0.7 0 1.3 -2.7 1.7 -7.1z m-23.3 -82.3 c0 -1.1 -1 -1.5 -3.7 -1.4 l-3.8 0.1 3 1.3 c3.9 1.8 4.5 1.8 4.5 0z"/>
  <path d="M322.3 453.7 c0.3 -5.2 1.1 -10.7 1.8 -12.3 0.7 -2 0.9 -7.1 0.5 -16.1 -0.6 -11.1 -0.5 -13.3 0.8 -14 1.9 -1.1 1 -9.3 -1 -9.3 -0.8 0 -1.3 -0.9 -1.1 -2.2 0.2 -1.8 -0.3 -2.3 -2.3 -2.3 -2 0 -3.4 1.5 -7.5 8.2 -5.8 9.4 -11 16.1 -11.9 15.2 -0.3 -0.3 0.8 -2.1 2.4 -4 5.3 -5.8 12.2 -17.6 14.9 -25.2 1.1 -3.2 1.1 -4.1 -0.1 -5.5 -0.8 -0.9 -2 -3 -2.8 -4.6 -0.8 -1.5 -2.6 -3.3 -4 -3.8 -4 -1.5 -6 -3.9 -6 -7.3 0 -1.7 -0.5 -3.6 -1.2 -4.3 -0.9 -0.9 -0.9 -1.2 0.1 -1.2 0.7 0 1.1 -0.8 1 -1.7 -0.1 -1 0 -2 0.1 -2.3 0.1 -0.3 0.2 -3.1 0.3 -6.2 0.2 -4.9 0.6 -6.1 3.4 -9 3.7 -3.8 5.2 -9.3 5.3 -19 0 -6.2 -0.4 -7.4 -5 -15.9 -2.8 -5.1 -6.1 -10.7 -7.4 -12.4 -2.4 -3.1 -2.4 -3.2 -0.5 -4.6 1.9 -1.4 2.7 -6.9 1 -6.9 -2.8 0 -2.1 -24.6 0.9 -35.5 0.4 -1.6 1.8 -7.3 3 -12.5 1.2 -5.2 3.1 -12.4 4.2 -16 2.5 -7.7 10.2 -24.8 9.3 -20.6 -0.6 2.6 -0.5 2.8 1 1.6 2.2 -1.8 4.5 -6.4 4.5 -9.1 0 -1.8 -0.2 -2 -1.6 -0.8 -1.3 1.1 -1.3 0.6 0.2 -3.2 1 -2.4 2.6 -5.7 3.6 -7.4 2.2 -3.6 2.3 -7.4 0.3 -8.1 -0.8 -0.3 -2.2 -2 -3 -3.7 -1.3 -2.5 -1.3 -3.7 -0.4 -5.9 0.9 -2.2 0.9 -3.2 -0.2 -4.6 -1.3 -1.5 -1.2 -1.6 0.3 -0.4 1.2 1 2.2 1.1 3.7 0.3 1.6 -0.9 2.4 -0.7 4.1 1.1 1.1 1.2 2 3.2 2 4.5 0 3.4 2.6 2.8 3.4 -0.7 0.5 -2.6 1 -3 3.9 -3 3.7 0 8.8 3.4 13.2 8.8 1.5 1.8 4.6 4.2 6.9 5.4 5.9 2.9 7.6 4.7 7.6 8 0 2.3 -0.4 2.8 -2.6 2.8 -3.1 0 -2.8 2.3 0.4 2.8 1.2 0.2 2.7 1.3 3.3 2.5 0.7 1.2 2 3 3 4 1.1 1 1.9 2.6 1.9 3.7 0 2.7 -4.3 7 -6.9 7 -3 0 -6.1 1.8 -6.1 3.4 0 0.7 -0.9 2.1 -2 3.1 -1 0.9 -2.4 3.3 -3 5.1 -0.7 1.9 -1.6 3.4 -2.1 3.4 -0.5 0 -0.9 0.9 -0.9 2 0 1.1 -0.4 2 -0.8 2 -0.5 0 -1.6 1.9 -2.6 4.3 -1 2.3 -2.7 6.2 -3.8 8.5 -1.7 3.7 -1.8 5.1 -0.9 9.3 1.3 6.1 1.4 14.6 0.2 15.3 -0.5 0.3 -1.2 2.2 -1.5 4.1 -0.4 1.9 -1.3 3.5 -2 3.5 -1.6 0 -3.1 1.7 -4 4.6 -0.4 1.4 0.1 3.1 1.6 5 2.2 2.7 2.3 3.8 2.5 20.8 0.1 12.8 -0.3 19.9 -1.4 25 -0.8 3.9 -1.7 11 -2 15.8 l-0.5 8.8 2.8 1 c3.3 1.3 4.4 2.7 4.4 5.6 0 1.2 0.9 4.1 2 6.5 2.8 6.2 2.6 12.9 -0.3 15.7 -1.3 1.2 -3.3 2.2 -4.4 2.2 -1.1 0 -2.6 0.7 -3.3 1.5 -0.7 0.8 -2.3 1.5 -3.6 1.5 -2.8 0 -6 5.2 -4.8 7.8 0.4 1 1 9.1 1.4 18.2 0.8 16.9 0.6 18.8 -4.7 47.8 -0.5 2.9 -0.9 3.2 -4.1 3.2 l-3.5 0 0.6 -9.3z m28.8 -252.4 c3.3 -2 3.7 -3.6 1.1 -5.5 -1 -0.7 -2.2 -2.6 -2.6 -4.1 -0.6 -2.3 -0.9 -2.7 -2.1 -1.7 -0.8 0.6 -2 0.8 -2.6 0.4 -2.1 -1.2 -3.9 2.4 -2.7 5.2 0.6 1.3 1.4 2.4 1.8 2.4 0.4 0 1.2 1.1 1.8 2.5 1.4 3 1.6 3 5.3 0.8z"/>
  <path d="M141.9 451.8 c-0.7 -1.3 -2.1 -3.8 -3.1 -5.6 -2.1 -3.7 -2.4 -8.2 -0.6 -10 0.7 -0.7 2.6 -1.2 4.4 -1.2 2.8 0 3.3 0.5 5.3 5.1 1.1 2.9 2.1 7.1 2.1 9.5 0 4.3 0 4.4 -3.5 4.4 -2.5 0 -3.7 -0.6 -4.6 -2.2z"/>
  <path d="M222 424 c0 -0.5 -1.4 -1 -3.1 -1 l-3.1 0 0.7 -10.2 c0.4 -5.7 0.9 -10.5 1.1 -10.7 0.2 -0.2 1.1 0.5 2.1 1.5 1.2 1.2 1.8 3.2 1.7 6.1 -0.1 3.4 0.3 4.3 1.6 4.3 2 0 3.3 4.8 2.4 8.6 -0.6 2.3 -3.4 3.5 -3.4 1.4z"/>
  <path d="M228 409.2 c0 -2 4.7 -9.6 7.3 -11.8 2.2 -1.9 2.2 -1.9 0.6 0.1 -0.9 1.1 -3.1 4.5 -4.8 7.5 -1.7 3 -3.1 4.9 -3.1 4.2z"/>
  <path d="M241 390.8 c2.4 -2.7 4.5 -4.8 4.7 -4.8 0.8 0 0 0.9 -4.4 5 l-4.8 4.5 4.5 -4.7z"/>
  <path d="M228.3 388 c0.2 -0.8 0.8 -2.6 1.2 -3.9 0.6 -2 0.5 -2.3 -1 -1.7 -4.4 1.7 2.5 -13.5 7.7 -16.7 2.1 -1.4 5.1 1.3 3.7 3.4 -0.5 0.8 -0.9 2.3 -0.9 3.5 0 2.3 -4 8.1 -5.5 8 -0.5 0 -2 2 -3.3 4.4 -1.3 2.5 -2.1 3.8 -1.9 3z"/>
  <path d="M396 381 l0 -5 3.6 0 3.7 0 -0.7 3.8 c-0.3 2 -0.6 4.3 -0.6 5 0 0.7 -1.3 1.2 -3 1.2 -2.9 0 -3 -0.1 -3 -5z"/>
  <path d="M383 366 l0 -4 4.5 0 c4.4 0 4.5 0 4.5 3.4 0 3.7 -1.2 4.6 -6.1 4.6 -2.7 0 -2.9 -0.2 -2.9 -4z"/>
  <path d="M398.3 359.3 c0.4 -5.4 0.9 -11.9 1.3 -14.5 0.6 -4.4 0.9 -4.8 3.5 -4.8 2.5 0 2.8 0.4 3.1 3.8 0.2 2 0 5.7 -0.4 8.2 -0.4 2.5 -0.7 7.3 -0.7 10.8 l-0.1 6.2 -3.7 0 -3.6 0 0.6 -9.7z"/>
  <path d="M244.9 363.8 c1.9 -2.5 6.7 -4.7 8.1 -3.8 0.8 0.5 0 1 -2.1 1.5 -1.9 0.4 -4.3 1.5 -5.4 2.4 -1.8 1.5 -1.9 1.5 -0.6 -0.1z"/>
  <path d="M276 363.1 c0 -2 2.8 -7.3 3.2 -6 0.2 0.7 -0.2 2.6 -1 4.1 -1.4 2.8 -2.2 3.5 -2.2 1.9z"/>
  <path d="M383.2 357.3 c-2.3 -0.3 -3.6 -1.1 -4.2 -2.8 -0.5 -1.3 -1.6 -10.4 -2.4 -20.2 -1.7 -19.1 -1.9 -22.1 -3.5 -52.7 -0.5 -11 -1.3 -23.4 -1.7 -27.8 -0.6 -6.9 -0.5 -7.8 1 -7.8 0.9 0 1.9 -0.7 2.2 -1.5 1.3 -3.4 10 -0.7 14.2 4.4 1.1 1.4 1.2 1.2 0.7 -1.4 -1.5 -6.9 -2.6 -12.4 -3.9 -19 -0.8 -3.8 -2.2 -9.6 -3 -12.8 -0.9 -3.2 -1.6 -6.7 -1.6 -7.7 0 -2.9 2.7 -1.4 4.6 2.7 1 2 2.2 3.2 3 2.9 1.4 -0.5 1.4 -0.3 3.5 8.3 0.9 3.4 2 5.6 3 5.8 1.1 0.3 1.9 2 2.3 5.1 0.4 2.6 1.1 7.9 1.6 11.7 0.5 3.9 1.4 9.3 2 12 0.6 2.8 1.3 7.8 1.6 11.3 l0.7 6.2 -3.2 0 c-3 0 -3.1 0.2 -3.1 4 0 3.5 0.3 4 2.3 4 2.3 0 2.4 0.2 3 12.3 0.4 6.7 1.2 16.5 1.9 21.7 1.4 11.9 0.7 17 -2.6 17 -2.2 0 -2.3 0.5 -2.9 8.8 -0.4 4.8 -1.1 10.4 -1.7 12.5 -1.1 3.6 -1.2 3.7 -5.8 3.5 -2.6 0 -6.2 -0.3 -8 -0.5z"/>
  <path d="M197.2 306.8 c-2 -2 -1.5 -5.8 0.8 -5.8 1.6 0 2 0.7 2 3.5 0 3.7 -0.8 4.3 -2.8 2.3z"/>
  <path d="M252 306.8 c0 -0.5 2.5 -0.8 5.5 -0.8 3 0 5.5 0.3 5.5 0.8 0 0.4 -2.5 0.7 -5.5 0.7 -3 0 -5.5 -0.3 -5.5 -0.7z"/>
  <path d="M196 274.3 c0 -2 0.3 -3.3 0.7 -3 0.3 0.4 1.2 0.2 2 -0.4 1 -0.9 1.3 -0.4 1.3 3 0 3.4 -0.3 4.1 -2 4.1 -1.6 0 -2 -0.7 -2 -3.7z"/>
  <path d="M209 215.1 c0 -2 0.7 -3.4 1.9 -4.1 2.9 -1.5 5.1 -1.3 4.5 0.5 -0.4 0.8 -0.3 1.5 0.1 1.5 0.7 0 6.7 -3.2 7.5 -4 0.3 -0.3 4.6 -2.6 9.5 -5.1 8.5 -4.3 9 -4.4 9.1 -2.4 0.1 1.7 -0.7 2.4 -4.5 3.5 -4.4 1.3 -16.1 6.8 -17.1 8 -0.7 0.9 -4.4 2.3 -5.4 2.1 -0.4 -0.1 -1.9 0.5 -3.2 1.4 -2.3 1.5 -2.4 1.5 -2.4 -1.4z"/>
  <path d="M306 173.4 c0 -1.4 0.4 -2.3 1 -1.9 0.6 0.3 1 1.5 1 2.6 0 1 -0.4 1.9 -1 1.9 -0.5 0 -1 -1.2 -1 -2.6z"/>
  <path d="M313.2 147.8 c-0.7 -2.2 -1 -4.3 -0.7 -4.6 0.3 -0.3 0.5 0 0.5 0.7 0 0.8 0.6 1.1 1.6 0.7 0.8 -0.3 1.2 -0.2 0.9 0.4 -0.4 0.6 0.1 1.8 1.1 2.7 1.3 1.4 1.4 1.8 0.3 2.2 -0.8 0.2 -1.6 0.8 -1.9 1.2 -0.3 0.4 -1.1 -1 -1.8 -3.3z"/>
  <path d="M151.4 136.1 c1.1 -1.7 8.6 -7.3 8.6 -6.4 0 0.5 -2.1 2.4 -4.6 4.1 -2.5 1.8 -4.3 2.8 -4 2.3z"/>
  <path d="M226.5 124.9 c-1.1 -1.6 -0.2 -1.7 2.5 -0.2 2.4 1.2 2.4 1.3 0.3 1.3 -1.2 0 -2.5 -0.5 -2.8 -1.1z"/>
  <path d="M247 67.1 c-4 -1.1 -0.2 -1.9 5 -1.1 2.5 0.4 3.5 0.8 2.3 0.9 -1.2 0 -2.7 0.3 -3.5 0.5 -0.7 0.2 -2.4 0.1 -3.8 -0.3z"/>
 </g>
 <g fill="#f7df8c">
  <path d="M94.8 472.3 c-0.9 -1 -2.5 -3.7 -3.6 -5.9 -1.2 -2.3 -2.8 -4.4 -3.6 -4.7 -0.8 -0.3 -1.8 -2.3 -2.2 -4.4 -0.4 -2.1 -1.8 -6.3 -3.1 -9.3 -5.7 -12.8 -6.6 -16.8 -5.7 -26.5 0.4 -4.9 0.9 -12.4 1 -16.6 0 -4.2 0.4 -8 0.7 -8.6 0.4 -0.5 1.1 -5.7 1.6 -11.4 1.6 -16.1 7.4 -46.8 10.6 -56 0.9 -2.4 1.3 -5.5 1 -6.9 -0.3 -1.5 -0.2 -2 0.3 -1.2 0.6 0.8 1.3 0.1 2.6 -2.4 0.9 -2 1.5 -3.9 1.2 -4.2 -0.3 -0.2 -1 0.8 -1.6 2.3 -0.6 1.5 -1.3 2.5 -1.6 2.3 -0.6 -0.7 5.2 -14 8.7 -19.6 2.3 -3.9 2.7 -4.1 3.2 -2.3 0.3 1.2 0.1 1.9 -0.5 1.5 -0.5 -0.3 -0.9 0 -0.7 0.7 0.3 2.8 -0.2 4.5 -2.2 6.9 -1.1 1.4 -1.7 1.9 -1.3 1.1 0.5 -1 0.3 -1.2 -0.5 -0.7 -0.7 0.4 -0.9 1.7 -0.6 2.9 0.4 1.5 0.3 1.8 -0.3 0.9 -0.7 -1.1 -1 -1 -1.6 0.3 -0.8 2.3 -0.8 2.7 0.4 2 1.3 -0.8 0.2 5.1 -1.7 8.8 -0.8 1.5 -1.8 6.7 -2.4 11.5 -0.5 4.8 -1.6 11.2 -2.4 14.3 -0.8 3.1 -1.5 7.6 -1.5 10 0 2.4 -0.9 9.8 -2 16.4 -2.2 12.8 -2.1 16.6 0.6 40.5 0.8 6.9 1.4 14.9 1.4 17.8 0 17 7.3 39.6 11.9 36.8 1.2 -0.8 0.5 -26 -0.9 -32.1 -2.3 -9.9 -1.8 -60.1 0.5 -59.9 0.6 0 1.1 0.9 1.3 2 0.2 1 1.3 5 2.4 8.8 1.5 5.1 2.2 6.6 2.9 5.4 1.1 -1.9 1.4 -41.5 0.4 -48 -0.4 -2.6 -1.1 -4.5 -1.6 -4.2 -0.5 0.3 -0.9 -0.2 -0.9 -1 0 -0.9 0.4 -1.6 0.9 -1.6 1.7 0 7 -10.5 8.6 -16.8 1.5 -5.6 1.5 -6.4 0.1 -8.4 -0.9 -1.2 -1.6 -3.6 -1.6 -5.3 0.1 -3 2.9 -7.5 4.8 -7.5 0.5 0 0.9 -0.7 0.8 -1.6 -0.1 -1.6 2.9 -4.3 3.7 -3.4 0.3 0.3 0.1 3 -0.4 6 -0.5 3 -1.5 12.5 -2.3 21 -0.8 8.5 -2.3 20.2 -3.5 26 -2.4 12.1 -4.1 31.8 -4.1 46.6 0 8.2 -0.3 10.4 -1.4 10.4 -2 0 -2.5 2.1 -1.6 6.6 2.5 11.2 5.4 30.9 5.8 38.7 0.3 8.5 0.3 8.7 -2 8.7 -2.1 0 -2.3 0.3 -2 5 0.3 3.9 0.1 5 -1.1 5 -0.8 0 -2.2 1.1 -3.1 2.5 -1.3 2 -2.5 2.5 -6 2.5 -2.8 0 -4.8 -0.6 -5.8 -1.7z m13.3 -15.8 c-0.9 -5.5 -2 -9.5 -2.3 -8.9 -0.9 1.4 2.3 20.7 3.3 19.7 0.4 -0.4 -0.1 -5.3 -1 -10.8z m-2.6 -21.9 c-0.5 -5.2 -1.1 -8.3 -1.7 -8 -1 0.6 -0.2 14.9 0.9 16.7 1.2 2 1.4 -0.7 0.8 -8.7z m-1.7 -28.5 c-0.4 -5.3 -1.2 -8.3 -2.1 -7 -0.1 0.2 -0.1 3.7 0.1 7.8 0.3 5.1 0.7 7 1.4 6.3 0.6 -0.6 0.9 -3.6 0.6 -7.1z"/>
  <path d="M327 465.1 c-3.1 -1.6 -3.5 -2.3 -3.8 -6.2 -0.1 -2.4 0.5 -7.3 1.3 -10.9 l1.5 -6.5 -0.4 9.5 c-0.4 7.7 -0.3 8.8 0.5 5.5 2.7 -10.5 5.4 -30.4 4.9 -35.5 -0.5 -5 -0.6 -5.2 -1.1 -2 -0.6 3.5 -0.6 3.4 -0.7 -0.8 -0.1 -2.8 -0.6 -4.1 -1.3 -3.7 -0.7 0.5 -0.8 2.5 -0.4 5.6 0.4 2.9 0.3 4.9 -0.3 4.9 -1.1 0 -2.5 -16.1 -1.6 -18.4 0.3 -0.9 0.1 -1.6 -0.6 -1.6 -0.7 0 -1 -1.3 -0.8 -3.2 0.2 -1.8 0.8 -3.2 1.4 -3.1 0.8 0.1 1 -0.6 0.7 -2 -0.4 -1.6 -0.3 -1.9 0.6 -1.1 0.7 0.6 1.8 4.4 2.5 8.5 l1.4 7.4 0.1 -5.1 c0.1 -2.8 -0.6 -7 -1.4 -9.3 -1.3 -3.8 -1.3 -4.1 0.4 -4.1 1.1 0 2.2 -0.7 2.5 -1.6 0.9 -2.4 0.7 -2.8 -0.9 -1.4 -2.1 1.8 -4.3 0.6 -6.2 -3.5 -1.9 -4 -1.6 -4.7 1.6 -3.8 2 0.5 2.2 1 1.7 4.2 l-0.5 3.6 2.2 -4.6 c1.9 -3.8 2.5 -4.4 3.9 -3.5 1.3 0.8 2.2 0.6 3.6 -0.7 1 -0.9 2.8 -1.7 3.9 -1.7 1.1 0 3 -1.1 4.3 -2.5 2.5 -2.6 2.5 -2.4 -0.9 -12 -0.6 -1.6 -1.3 -4.2 -1.6 -5.7 -0.3 -1.8 -1.4 -2.9 -3.6 -3.7 l-3.1 -1.1 0.5 -11.7 c0.2 -6.5 1.1 -14.9 2 -18.8 1 -4.9 1.4 -11.5 1.2 -22.2 -0.3 -13.7 -0.5 -15.5 -2.4 -17.9 -3.4 -4.4 -2.3 -14 1.9 -15.1 1.1 -0.3 2.2 -1.7 2.6 -3.7 0.3 -1.7 1.1 -3.7 1.6 -4.3 0.6 -0.8 0.7 -3.2 0.3 -5.9 -0.9 -6.1 -1.4 -7.4 -3.1 -7.4 -1.3 0 -0.9 -1.4 3.1 -10.5 0.8 -1.6 2.3 -5.2 3.5 -7.8 1.1 -2.6 1.8 -5.2 1.5 -5.7 -0.4 -0.6 0.1 -0.7 1.2 -0.3 1.6 0.6 1.6 0.5 0.4 -1 -0.7 -0.9 -2.2 -1.7 -3.2 -1.7 -1.1 0 -1.9 -0.2 -1.9 -0.5 0 -1.2 4.5 -5.5 5.7 -5.5 1.6 0 1.7 2.2 0.1 3.8 -0.9 0.9 -0.8 1.2 0.4 1.2 1 0 2.1 -1.4 2.8 -3.4 0.6 -1.8 2 -4.2 3 -5.1 1.1 -1 2 -2.4 2 -3.1 0 -0.8 1.8 -2.3 4 -3.4 4.6 -2.3 5.4 -2.5 4.4 -0.7 -0.4 0.6 0.4 0.1 1.7 -1.3 1.6 -1.7 2 -2.6 1.1 -2.8 -0.7 -0.2 -1.9 -1.7 -2.7 -3.3 -1.5 -2.8 -3.2 -3.4 -7.9 -2.9 -1.9 0.2 -1.9 0.1 -0.3 -2.4 0.9 -1.4 1.7 -3.1 1.7 -3.9 0 -2.5 -4.3 -5.6 -7.8 -5.5 -3.7 0.1 -3.6 -0.4 -1.4 7.9 1.4 5.6 0.2 6.4 -4.2 3 -2 -1.6 -4.2 -3.1 -4.8 -3.3 -1.3 -0.5 0.6 -4.1 4.6 -8.5 1.6 -1.7 2.6 -3.8 2.4 -4.5 -0.3 -0.7 -3.1 -2.2 -6.3 -3.2 -4.5 -1.6 -6.2 -1.8 -8.5 -0.9 -3.4 1.3 -4 0.9 -4 -2.7 0 -1.6 -1.1 -3.8 -2.5 -5.3 -3 -2.9 -2.6 -3.3 4.8 -5.2 5.6 -1.4 11.4 -0.8 14.2 1.5 0.9 0.7 1.5 2.9 1.5 5.1 0 3 0.4 3.9 2.3 4.4 1.2 0.4 3.3 1.7 4.7 3 1.4 1.2 4.4 3.3 6.8 4.5 3.8 2.2 4.2 2.7 4.2 6.2 0 3.1 0.6 4.4 3 6.5 1.7 1.3 3 3.3 3 4.3 0 1 1.1 3.2 2.5 4.8 1.8 2.1 2.5 4.2 2.5 7 0 5.8 -0.8 7.1 -4.7 7.8 -3.7 0.7 -3.4 2 0.7 2.6 2.1 0.2 2.6 0.9 2.8 4.1 0.3 3.2 0.7 3.7 2.8 3.7 3.6 0 6.4 1.8 6.4 4 0 1 0.5 2.2 1 2.5 0.6 0.3 1 1.7 1 3.1 0 1.4 0.7 3.5 1.5 4.8 0.8 1.3 2 6.1 2.6 10.7 0.6 4.6 2 10.4 3 12.9 1 2.5 2.1 7.1 2.5 10.3 0.3 3.1 1 5.7 1.4 5.7 1 0 2.3 15.8 2.4 29 0.1 7.8 0.4 10.4 1.4 10.3 0.8 -0.2 1.2 1.3 1.2 5.2 0 3 -0.4 5.5 -1 5.5 -0.5 0 -1 0.6 -1 1.4 0 0.8 -0.7 1.6 -1.5 2 -1.1 0.4 -1.5 2.2 -1.5 6.8 -0.1 6 -1.8 22 -3.9 35.3 -1.6 10.6 -6.1 24.8 -10 31.6 -4.7 8.1 -15.8 21.9 -17.6 21.9 -2 0 -5.3 4.7 -12.6 17.5 -3.4 6.1 -7.1 12.7 -8.3 14.7 -3.6 6.3 -13.6 8.7 -20.6 4.9z m25 -70.3 c2.4 -6.2 4.8 -15.4 4 -16.1 -1.2 -1.3 -5 1.1 -5 3.2 0 1 -0.7 4.1 -1.6 6.9 -1.7 5 -1.4 8.2 0.6 8.2 0.6 0 1.5 -1 2 -2.2z m25 -25.3 c0 -1.6 -0.6 -2.5 -1.5 -2.5 -1.5 0 -2.1 3.1 -0.8 4.3 1.3 1.4 2.3 0.6 2.3 -1.8z m17.2 -18.7 c1.6 -5.2 1.7 -46.2 0.2 -67.3 -0.8 -10.6 -1.6 -15.1 -3.1 -18.5 -1.2 -2.5 -2.9 -6.6 -3.8 -9.1 -1.2 -3.4 -2.7 -5.4 -5.6 -7.4 -5.3 -3.5 -7.4 -3 -7.3 1.5 1.2 32 1.8 42 3 49.8 0.9 5.2 1.3 10.6 0.9 12 -0.6 3 2.5 38 3.5 39 0.1 0.1 0.3 0.8 0.4 1.5 0.1 0.6 0.9 1.1 1.9 0.9 0.9 -0.2 2.5 0.2 3.5 0.7 3.4 2.1 5.1 1.3 6.4 -3.1z m-30.3 -24.1 c1.1 -1.8 2.9 -4.2 4.1 -5.2 2.9 -2.6 2.6 -7.6 -0.5 -10.5 -1.4 -1.3 -2.8 -2 -3.2 -1.7 -0.7 0.7 -5.2 17.3 -5.3 19.5 0 2.4 2.9 1.2 4.9 -2.1z m36.2 -34.5 c-1.2 -2 -1.5 31.8 -0.3 35.8 0.4 1.4 0.8 -5.7 1 -15.8 0.1 -10.8 -0.2 -19 -0.7 -20z m-51.2 -13.3 c1.7 -0.6 3.1 -1.6 3.1 -2.2 0.1 -1.2 3.4 -8 11.2 -22.7 4.3 -8.1 4.7 -8.5 7.9 -8.5 3.3 0 3.4 -0.1 3.3 -4 -0.3 -6.6 -1.6 -12.6 -3 -13.2 -0.7 -0.3 -2.3 0.2 -3.6 1.1 -1.2 0.9 -3 1.6 -3.9 1.6 -1.1 0 -2.5 2.1 -4.2 6.3 -1.5 3.4 -4.6 10.9 -7 16.7 -6.3 15 -9 22.9 -8.3 24.6 0.6 1.7 0.5 1.7 4.5 0.3z m18.2 -58.9 c1.1 -0.6 1.9 -2.1 1.9 -3.5 0 -2.1 -0.5 -2.5 -2.9 -2.5 -3.1 0 -4.5 2 -3.6 5.1 0.7 2.2 1.8 2.3 4.6 0.9z m-1.1 -38.5 c-0.6 -0.7 -4.1 -3.2 -7.8 -5.4 -10.1 -6.2 -10.5 -6.5 -13.1 -8.4 -1.8 -1.3 -2.6 -1.4 -3.2 -0.6 -0.4 0.8 1.1 2.4 4.2 4.5 2.7 1.9 5.2 3.4 5.6 3.5 0.5 0 4 2.2 7.8 4.8 6.3 4.4 9.5 5.2 6.5 1.6z"/>
  <path d="M324.8 437.5 c0.2 -1.9 0.8 -3.5 1.3 -3.5 1 0 1.2 3.1 0.3 5.4 -1.1 2.8 -2 1.7 -1.6 -1.9z"/>
  <path d="M196.5 426.1 c-1.5 -3.1 -2.1 -5.2 -1.5 -5.6 2.2 -1.4 6.9 0.8 11.1 5.2 3.6 3.7 4 4.5 2.2 4 -1.3 -0.3 -2.6 -0.1 -2.9 0.4 -0.3 0.5 -1.8 0.9 -3.4 0.9 -2.5 0 -3.3 -0.7 -5.5 -4.9z"/>
  <path d="M207.1 423.3 c-3.5 -3.8 -7.5 -8.5 -8.9 -10.6 -2.2 -3.2 -2.3 -4 -1.1 -4.9 1.1 -0.8 1 -0.9 -0.4 -0.4 -1.5 0.5 -1.7 0.2 -1.2 -1.4 0.7 -2.2 -3.4 -15 -4.7 -15 -0.5 0 -0.8 -1 -0.8 -2.3 0 -1.3 -0.9 -5.7 -2.1 -9.8 -1.1 -4.1 -2.5 -9.4 -3.1 -11.9 -0.6 -2.5 -1.3 -3.9 -1.6 -3.2 -0.9 2.8 8.4 36 10.9 38.7 1.2 1.2 1.2 3.8 0 3.1 -1.3 -0.8 -6.6 -15.1 -8.4 -22.6 -0.9 -3.6 -2.3 -9.4 -3.2 -13 -4.8 -19.1 -5.7 -23.1 -5.2 -23.6 0.7 -0.7 3.7 9.7 3.7 12.6 0 2.4 1.5 1.9 3 -1 0.8 -1.6 0.7 -1.8 -0.4 -1.4 -1 0.4 -1.9 -1 -3 -4.9 -0.9 -3 -1.6 -6.2 -1.6 -7 0 -2 -1.7 -3.1 -2.3 -1.5 -0.2 0.7 -0.2 0.2 0 -1.2 0.3 -2.3 -1.4 -7.9 -6.7 -21 -1.2 -3 -1.6 -4.9 -0.9 -4.2 0.7 0.6 2.2 1.2 3.4 1.2 2.2 0 3.7 3.8 5 12.5 1.1 7.5 1.7 9.5 2.7 9.5 1 0 0.9 -1.2 -1 -10.5 -0.5 -2.7 -0.4 -2.9 1.1 -1.6 1 0.7 2 3.1 2.3 5.2 0.4 2.1 1.3 4.7 2 5.6 1.3 1.7 1.3 1.7 1.4 -0.2 0 -2 -5.4 -21.7 -9 -32.5 -1 -3 -2.1 -10.3 -2.5 -16.2 -0.6 -9.2 -0.4 -11.1 1.2 -14.5 1 -2.1 2.3 -5.6 2.8 -7.8 0.6 -2.3 1.6 -4 2.4 -4 2.1 0 3.7 5.4 2.2 7.7 -2.3 3.6 -0.1 13.1 3.4 14.4 2.8 1.1 4.6 6.3 6.5 18.7 1 6.7 1.8 11.4 1.9 10.5 0.1 -1 0.6 -1.8 1.1 -1.8 0.6 0 1 1.8 0.9 4.3 -0.1 2.5 0.7 6.3 1.9 9.2 1.2 2.8 3.1 8.2 4.2 12 1.2 3.9 2.5 7.9 3 9 0.9 1.9 1.8 4.4 6.5 18 1 2.8 2.1 5.7 2.6 6.6 0.4 0.9 0.3 2.2 -0.2 3 -2.6 4.2 1.8 28.9 5.2 28.9 0.4 0 0.6 0.8 0.4 1.8 -0.2 0.9 -0.6 4.6 -0.9 8.2 l-0.4 6.5 1.6 -3.5 1.7 -3.5 0.3 4.9 c0.2 2.7 -0.2 5.4 -0.7 5.9 -0.6 0.6 -1.1 2.1 -1.1 3.4 0 2 -0.5 2.3 -3.7 2.3 -3.3 0 -4.5 -0.8 -10.2 -6.7z"/>
  <path d="M193.6 418.1 c-1 -1.5 3.2 -2 5.1 -0.5 1.6 1.2 1.5 1.3 -1.4 1.4 -1.7 0 -3.4 -0.4 -3.7 -0.9z"/>
  <path d="M193.8 412.8 c-1.6 -2 -2.4 -4.8 -1.4 -4.8 0.2 0 1.3 1.6 2.5 3.5 2.3 3.9 1.6 4.7 -1.1 1.3z"/>
  <path d="M75.3 409.5 c0 -2.7 0.2 -3.8 0.4 -2.2 0.2 1.5 0.2 3.7 0 5 -0.2 1.2 -0.4 0 -0.4 -2.8z"/>
  <path d="M313.2 381.3 c-6 -0.5 -7.2 -2 -7.2 -9.5 l0 -4 4 3.6 c2.3 2 4.5 3.4 5 3.1 0.4 -0.3 1.7 0.7 2.8 2.2 3.1 4.6 3.4 5.3 2 5.1 -0.7 -0.1 -3.7 -0.3 -6.6 -0.5z"/>
  <path d="M319.2 377 c-1.9 -3.2 -1.5 -5 1.3 -5 2.6 0 2.9 0.9 1.9 4.8 -0.8 2.7 -1.6 2.8 -3.2 0.2z"/>
  <path d="M311.9 371.4 c-1.3 -1.5 -3.7 -3.5 -5.4 -4.5 -1.6 -1.1 -2.5 -1.9 -1.8 -1.9 0.6 0 1.3 -1.2 1.5 -2.7 0.5 -4.2 2.8 -4.1 2.8 0.2 0 2.6 0.8 4.5 3 6.8 2.6 2.8 3.7 4.7 2.7 4.7 -0.2 0 -1.4 -1.2 -2.8 -2.6z"/>
  <path d="M213.5 360.5 c-0.4 -1.1 -1.5 -4 -2.5 -6.5 -2.9 -7.3 -5 -15.2 -4.3 -16.3 0.3 -0.6 0.9 -3.8 1.2 -7.1 l0.6 -6.1 4.1 -0.3 c3.8 -0.3 4.3 0 6.2 3.2 1.3 2.2 2.9 3.6 4.1 3.6 2.5 0 3 1.8 2.7 11.6 -0.2 10.6 -1.2 11.8 -8.3 11 -2.9 -0.3 -5.3 -0.4 -5.3 -0.1 0 0.3 0.7 2 1.6 3.6 0.8 1.7 1.3 3.6 1.1 4.2 -0.3 0.7 -0.8 0.3 -1.2 -0.8z"/>
  <path d="M306 355.2 c0 -2.4 0.4 -3 1.5 -2.6 0.8 0.4 1.5 1.2 1.5 1.9 0 0.7 -0.7 1.8 -1.5 2.5 -1.3 1.1 -1.5 0.8 -1.5 -1.8z"/>
  <path d="M307 349.4 c0 -1.3 5.3 -6.4 6.7 -6.4 1.6 0 1.6 1.1 0 4.3 -1 1.8 -1.7 2.3 -2.7 1.7 -0.9 -0.5 -2 -0.5 -2.7 0.2 -0.7 0.6 -1.3 0.7 -1.3 0.2z"/>
  <path d="M121.8 334 c0.2 -8.9 0.6 -12 1.6 -12 1.3 0 1.3 3 0 17.8 -0.9 10.5 -1.9 6.9 -1.6 -5.8z"/>
  <path d="M170.2 340.5 c-1.4 -3.1 -1.5 -4.5 -0.3 -4.5 0.7 0 3.1 5.1 3.1 6.6 0 1.4 -1.9 -0.1 -2.8 -2.1z"/>
  <path d="M314.8 328.8 c0.5 -13.4 0.6 -13.8 2.3 -7.2 0.8 3.4 1.2 7 0.8 8 -0.4 1.1 -0.8 3.1 -0.8 4.7 -0.1 1.5 -0.7 2.7 -1.4 2.7 -0.9 0 -1.1 -2.1 -0.9 -8.2z"/>
  <path d="M324 334 c0 -1.1 0.7 -2 1.5 -2 0.8 0 1.5 0.9 1.5 2 0 1.1 -0.7 2 -1.5 2 -0.8 0 -1.5 -0.9 -1.5 -2z"/>
  <path d="M163.6 321.9 c-0.3 -1.7 -0.6 -3.9 -0.6 -4.7 0 -2.5 2.5 0.5 3.8 4.6 1 2.8 0.9 3.2 -0.7 3.2 -1.3 0 -2 -1 -2.5 -3.1z"/>
  <path d="M122.7 317 c0.7 -7.3 1.2 -8.7 3 -9.4 2.5 -1 3.5 0.7 3.1 5.5 -0.3 3.9 -0.6 4.4 -3 4.7 -1.5 0.2 -2.9 1.1 -3.1 2 -0.3 0.9 -0.3 -0.3 0 -2.8z"/>
  <path d="M229.7 309 c-0.3 -1.1 0.1 -3.7 0.9 -5.8 0.7 -2 1.8 -5.6 2.4 -7.9 0.8 -3.2 1.6 -4.3 3 -4.3 1.1 0 2 0.4 2 0.9 0 0.5 1.4 1.4 3.2 2 4.5 1.6 6.4 -0.6 8.3 -9.7 0.8 -4 2 -8.2 2.5 -9.2 0.6 -1 1 -3.6 1 -5.7 0 -2.1 0.5 -5.5 1.1 -7.7 1.3 -4.7 0.6 -5.6 -5.1 -6.3 -2.9 -0.4 -4.4 -1.2 -4.9 -2.5 -0.5 -1.4 -1.1 -0.3 -2.5 4.4 -0.9 3.5 -2.4 8.1 -3.1 10.3 -0.8 2.2 -1.6 5.1 -1.8 6.5 -0.4 2.4 -0.4 2.4 -0.6 -0.2 -0.2 -4.3 -4.4 -3.9 -7.3 0.7 -2.2 3.4 -3.8 4.5 -3.8 2.6 0 -0.5 1.8 -3.1 4 -5.7 2.2 -2.7 4 -5.4 4 -6 0 -0.6 0.7 -1.8 1.6 -2.5 0.9 -0.7 2 -2.3 2.5 -3.6 0.5 -1.3 1.5 -2.3 2.4 -2.3 1.7 0 2 -3.1 0.4 -4.7 -0.8 -0.8 -0.7 -1.7 0.6 -3.5 l1.7 -2.3 -0.6 2.5 c-0.7 2.4 -0.6 2.4 0.9 -0.2 1.7 -3 3.1 -3.8 2.1 -1.3 -0.3 0.8 -0.2 1.5 0.3 1.5 0.4 0 1.3 -1.9 2 -4.2 0.7 -2.4 2 -5.4 2.9 -6.8 0.9 -1.4 1.7 -2.7 1.7 -3 0.1 -0.3 0.7 -1.7 1.5 -3.2 1.1 -2.3 2 -2.8 5.1 -2.8 l3.7 0 -0.5 4.3 c-0.2 2.3 -0.9 5.4 -1.5 6.9 -0.6 1.5 -1 5.8 -1 9.5 0 10.3 -1.7 28.2 -3.2 33.3 -0.7 2.5 -1.9 6.5 -2.7 9 -1.6 5.8 -2.5 6.8 -6.3 7.8 -2.4 0.6 -3.4 1.7 -4.6 4.8 -2.3 6 -2.8 6.4 -7.4 6.4 -3.5 0 -4.5 -0.4 -4.9 -2z m4.8 -11.5 c0.9 -5.2 -0.1 -4.2 -1.4 1.4 -0.5 2.4 -0.6 3.9 -0.1 3.5 0.4 -0.5 1.1 -2.7 1.5 -4.9z m21 -63.5 c0.3 -0.5 -0.1 -1 -0.9 -1 -0.8 0 -1.8 0.5 -2.1 1 -0.3 0.6 0.1 1 0.9 1 0.8 0 1.8 -0.4 2.1 -1z"/>
  <path d="M312 308.4 c0 -0.9 -0.9 -1.8 -2 -2.1 -1.1 -0.3 -1.7 -0.9 -1.4 -1.4 0.3 -0.5 -0.8 -2.5 -2.5 -4.4 -4.2 -4.8 -4.6 -9.4 -2.3 -26.5 l2 -14.5 0.2 9 c0.3 16.9 1.3 24.2 3.8 26.8 1.5 1.6 2.4 4.1 2.8 8.5 0.4 3.4 0.4 6.2 0 6.2 -0.3 0 -0.6 -0.7 -0.6 -1.6z"/>
  <path d="M169.2 304.3 c-0.6 -1.6 -1.4 -3.8 -1.7 -5.1 -0.6 -2.2 -5.3 -7.2 -6.7 -7.2 -0.5 0 -0.8 1 -0.8 2.3 0 1.3 -0.5 2.8 -1.1 3.4 -0.8 0.8 -0.8 1.7 0.1 3.3 1.4 2.6 0.5 3.8 -1.8 2.3 -1 -0.6 -1.7 -2.4 -1.8 -4.1 0 -3 -1.8 -6.2 -3.5 -6.2 -0.4 0 -2.9 -1.4 -5.4 -3.1 -3.3 -2.3 -4.3 -3.5 -3.6 -4.2 1.9 -1.9 1.2 -2.7 -1.9 -2.7 -4.4 0 -4.9 -2.5 -1.2 -6.2 l3 -3.1 3.4 2.4 c1.8 1.2 5.6 4.2 8.4 6.6 2.8 2.4 5.3 4.3 5.5 4.3 0.2 0 0.4 -8.3 0.4 -18.5 0.1 -20.7 -0.4 -22 -5.3 -13.6 -2.1 3.8 -3.1 4.8 -4.2 4 -1.2 -0.7 -1.1 -0.9 0.5 -0.9 1.7 0 1.7 -0.2 0.5 -1 -1.2 -0.8 -1.2 -1 0.5 -1 1.7 0 1.7 -0.2 0.5 -1 -1.2 -0.8 -1.2 -1 0.5 -1 1.3 0 1.6 -0.3 0.8 -0.8 -1.8 -1.1 3.1 -14.8 6.8 -19 1.6 -1.8 2.9 -3.8 2.9 -4.4 0 -0.6 0.3 -0.9 0.6 -0.6 0.3 0.4 -0.4 3.6 -1.5 7.3 -1.9 6.1 -2 7.6 -1 18.8 0.5 6.6 1.3 12.5 1.6 12.9 0.2 0.5 1.8 0.6 3.4 0.3 l2.9 -0.7 0 5.4 c0 2.9 0.7 11.2 1.5 18.3 0.8 7.2 1.5 13.6 1.5 14.3 0 2.3 -2.8 1.2 -3.8 -1.5z"/>
  <path d="M99 296.3 c0 -1.3 0.5 -2.3 1 -2.3 1.3 0 1.3 1.1 0 3 -0.8 1.2 -1 1.1 -1 -0.7z"/>
  <path d="M127.4 291.6 c0.1 -0.9 1.1 -2.3 2.2 -3.2 1 -0.8 1.2 -1.3 0.4 -0.9 -0.8 0.4 -0.6 -0.1 0.4 -0.9 3.1 -2.5 5.6 -2 5.6 0.9 0 1.8 -0.5 2.5 -2 2.5 -1.2 0 -3.1 0.7 -4.5 1.6 -2.1 1.4 -2.3 1.4 -2.1 0z"/>
  <path d="M208.6 282.5 c-0.3 -0.9 -0.6 -3 -0.6 -4.6 0 -2.4 0.4 -2.9 2.5 -2.9 2.1 0 2.4 -0.4 2 -2.2 -0.5 -2 0.1 -2.6 4.1 -4.3 2.6 -1.1 6 -3.1 7.6 -4.3 1.5 -1.3 3.5 -2.5 4.3 -2.6 0.8 -0.1 2.6 -1.3 4 -2.6 4.1 -3.8 3.8 -1.8 -0.6 4.1 -2.3 3 -5.5 7.5 -7.2 10.1 -2.6 3.9 -3.5 4.6 -5.3 4.2 -2 -0.5 -2.3 -0.1 -2.6 2.8 -0.3 3 -0.6 3.3 -3.9 3.6 -2.6 0.2 -3.8 -0.1 -4.3 -1.3z"/>
  <path d="M116 277.5 c0 -1.2 0.5 -2.6 1.2 -3.3 0.9 -0.9 0.8 -1.2 -0.5 -1.2 -1 0 -1.7 -0.8 -1.7 -2 0 -1.4 0.7 -2 2.4 -2 2.7 0 3.6 -1.6 3.6 -6.5 0 -2.9 0.3 -3.3 3.4 -3.9 2.3 -0.4 3.7 -1.4 4.1 -2.7 0.4 -1.1 0.9 -1.8 1.2 -1.6 0.6 0.7 -4.7 11.1 -9.7 18.9 -2.6 4.2 -4 5.6 -4 4.3z"/>
  <path d="M119 278.3 c0 -0.4 0.9 -1.9 2 -3.3 1.1 -1.4 2 -2.9 2 -3.4 0 -0.5 0.6 -1.7 1.3 -2.5 1.2 -1.5 5.4 -10.6 9.3 -19.8 1.7 -4.2 2.7 -4.9 5.7 -3.7 1.2 0.4 1 1.9 -1.5 8.7 -1.6 4.5 -3.2 9 -3.5 10 -0.3 1 -1.5 1.7 -2.9 1.7 -2.6 0 -3.9 2 -5.8 8.4 -1 3.4 -1.7 4.2 -3.9 4.4 -1.5 0.2 -2.7 0 -2.7 -0.5z"/>
  <path d="M301 272.8 c0 -5.4 1.2 -12.8 2 -12.3 0.7 0.4 -0.7 14.5 -1.5 15.4 -0.3 0.2 -0.5 -1.2 -0.5 -3.1z"/>
  <path d="M173.1 271.2 c0.2 -2.3 0.6 -4.2 1 -4.2 0.8 0 0 7 -0.8 8 -0.2 0.2 -0.3 -1.5 -0.2 -3.8z"/>
  <path d="M212 267.2 c0 -0.5 1.2 -1.4 2.8 -2.1 1.5 -0.7 4.5 -2.1 6.7 -3.2 l4 -2 -4.5 4 c-4.1 3.6 -9 5.4 -9 3.3z"/>
  <path d="M303.2 256.5 c-0.1 -3.4 1.6 -8.4 1.7 -5.2 0.1 1 0.6 1.5 1.1 1.2 0.6 -0.3 1 0.5 1 1.9 0 1.8 -0.4 2.4 -1.4 2 -0.8 -0.3 -1.6 0.2 -1.9 1.3 -0.3 1 -0.5 0.5 -0.5 -1.2z"/>
  <path d="M129 250.7 c0 -1.4 2.4 -5.7 3.2 -5.7 0.5 0 0.1 1.2 -0.9 2.8 -2.2 3.5 -2.3 3.6 -2.3 2.9z"/>
  <path d="M307.5 246 c1.4 -12.7 9.4 -36.8 14 -42 3.1 -3.4 4.5 -6.4 4.5 -9.4 0 -1.4 0.9 -4.1 1.9 -6 1.1 -1.9 2.6 -5.4 3.5 -7.8 0.8 -2.3 1.5 -3.5 1.6 -2.5 0 1 1 3.1 2.1 4.6 2.4 3.3 1.9 5.1 -1.6 5.1 -3 0 -3.6 1.1 -10.4 19.2 -4.2 11 -5 14.1 -4.2 15.7 1.5 2.8 1.4 4.9 -0.6 9.2 -1.1 2.3 -2.8 4.2 -4.4 4.7 -2 0.8 -3 2.4 -4.7 7.8 l-2.2 6.9 0.5 -5.5z"/>
  <path d="M179.5 231.8 c0.2 -19.3 0.8 -22.3 7.9 -39.1 1.5 -3.8 3.9 -4.8 5 -2.2 0.8 2.1 1.7 1.9 5.4 -1.5 2.5 -2.3 3.1 -3.5 2.7 -5.3 -0.6 -2.2 0 -2.6 7.7 -5.6 11.9 -4.8 15.6 -4.2 23.4 3.7 5.8 5.8 12.4 8.9 16 7.5 1.9 -0.7 1.7 -4 -0.3 -6.1 -1 -1 -2.7 -3.5 -3.8 -5.6 -2.4 -4.6 -6.7 -8.4 -10.3 -9.2 -5.8 -1.2 -15.6 -5 -15.9 -6 -0.5 -1.5 5 -3.4 9.7 -3.4 7.5 0 9.6 1 12 5.3 1.3 2.3 4.3 7.2 6.7 10.9 2.4 3.7 5.7 9.2 7.2 12.3 2.4 4.8 2.6 5.5 1.1 5.5 -1 0 -3.5 0.8 -5.6 1.7 -2.2 0.9 -4.6 1.8 -5.4 1.9 -0.8 0.1 -4.9 1.2 -9 2.4 -5.7 1.8 -8.9 3.5 -13.2 7.3 -3.2 2.7 -5.8 5.3 -5.8 5.8 0 1.3 -6.7 7.1 -10.3 8.8 -3 1.5 -7.3 6.9 -17 21.3 -8 11.9 -8.4 11.3 -8.2 -10.4z m10 -33.9 c1.8 -3.5 2.2 -4.9 1.2 -4.9 -1.5 0 -5.7 6.9 -5.7 9.4 0 2.7 1.8 0.9 4.5 -4.5z"/>
  <path d="M336 239.4 c0 -1.2 0.4 -1.4 1.3 -0.7 0.6 0.6 1.9 1.3 2.7 1.6 0.9 0.3 0.3 0.6 -1.2 0.6 -2 0.1 -2.8 -0.4 -2.8 -1.5z"/>
  <path d="M247 236.3 c0 -1.2 4.9 -7.3 5 -6.2 0 0.3 -1.1 2 -2.5 3.9 -1.4 1.9 -2.5 2.9 -2.5 2.3z"/>
  <path d="M151.6 224.5 c1.4 -3.7 3.6 -9.2 4.9 -12.2 1.4 -2.9 2.5 -5.9 2.5 -6.6 0 -0.7 0.4 -1.7 0.9 -2.2 0.5 -0.6 1.9 -3.9 3.2 -7.4 2.8 -7.9 10.1 -19.1 16 -24.9 3.8 -3.7 12 -8.5 18.4 -10.8 1.8 -0.7 1.7 -0.8 -0.7 -1.1 -2.8 -0.4 -10.8 3.2 -16.8 7.5 l-3.5 2.6 2.9 -3.1 c3.4 -3.8 18.1 -10.4 24.6 -11.1 4 -0.5 4.4 -0.3 3.2 1.1 -1.2 1.4 -0.5 1.5 7 1.1 l8.3 -0.4 -4.7 1.9 c-2.6 1 -6.2 2.8 -8.1 4 -2.5 1.5 -3.6 1.8 -3.9 0.9 -0.3 -0.8 -1.1 -0.9 -2.4 -0.3 -1 0.4 -2.1 0.9 -2.4 0.9 -0.3 0.1 -1.1 0.5 -1.9 1 -0.8 0.5 -3.9 1.2 -7 1.5 -4.9 0.5 -5.6 0.9 -5.6 2.8 -0.1 2.8 -1.1 3.8 -3.8 3.9 -3.4 0.1 -6.7 1.4 -6.8 2.7 -0.1 0.7 -0.1 2.1 0 3.2 0.1 1.2 -2.2 5.4 -5.1 9.5 -7.2 10 -9.5 14.2 -10.9 19.2 -1.3 5.2 -7.8 19.8 -9.5 21.7 -0.7 0.8 -0.1 -1.7 1.2 -5.4z"/>
  <path d="M169.1 227.4 c-2.3 -2.3 -2.4 -2.4 -0.7 -6.6 2.6 -6.9 7.5 -14.8 9.1 -14.8 0.8 0 1.5 0.6 1.5 1.3 0 2.8 -2.2 13.2 -3 14.2 -0.5 0.6 -1 2.6 -1.2 4.5 -0.4 4.2 -2.4 4.7 -5.7 1.4z"/>
  <path d="M150.2 216.2 c-0.9 -0.6 -0.1 -3 2.9 -9.3 2.3 -4.6 4.5 -8.6 4.9 -8.9 1.3 -1 1.9 -4 0.8 -4 -1.5 0 -0.1 -1.3 1.7 -1.6 1.2 -0.2 1.2 0.3 -0.2 3.4 -2 4.7 -7.3 17.2 -8.1 19.4 -0.5 1.1 -1.2 1.4 -2 1z"/>
  <path d="M354 212.7 c0 -0.7 0.9 -1.8 2 -2.5 2 -1.2 2.1 -1.2 0.4 1.3 -1.8 2.8 -2.4 3.1 -2.4 1.2z"/>
  <path d="M148 211.1 c0 -2.1 6.8 -13.6 7.6 -12.8 0.3 0.3 -6.3 13.7 -7.2 14.6 -0.2 0.2 -0.4 -0.6 -0.4 -1.8z"/>
  <path d="M352.3 207 c-1.3 -0.5 -2.3 -1.4 -2.3 -2 0 -0.5 -0.8 -1 -1.7 -1 -1.2 0 -0.5 -0.8 1.7 -2.1 1.9 -1.2 3.7 -2.5 4 -3 0.8 -1.1 7.9 2.3 8 3.8 0 0.8 -6.4 5.5 -7.3 5.2 -0.1 0 -1.2 -0.4 -2.4 -0.9z"/>
  <path d="M339.9 200.8 c-0.6 -1.5 -0.6 -7.8 0 -7.8 0.4 0 1.6 1.2 2.7 2.8 3.7 5 3.7 5.2 0.5 5.2 -1.7 0 -3.1 -0.1 -3.2 -0.2z"/>
  <path d="M255.2 186 c-1 -2.6 -1 -3.5 0 -4.1 1.9 -1.2 3.1 1.7 2 4.9 l-0.8 2.6 -1.2 -3.4z"/>
  <path d="M244.1 167.8 c-2.2 -2.6 -2.8 -3.8 -1.8 -3.8 2.5 0 5.9 3.4 5.5 5.5 -0.3 1.8 -0.7 1.5 -3.7 -1.7z"/>
 </g>
 <g fill="#f8e49d">
  <path d="M93.6 481.8 c-1.9 -3 -3.9 -8.4 -6.5 -18 -2.5 -9.1 -2.6 -9.9 -0.5 -7 0.8 1.2 2.4 2.2 3.4 2.2 1.2 0 2.8 1.8 4.7 5.2 3.8 7.1 5.8 8.1 8.7 4.6 2.2 -2.8 4.6 -3.7 4.6 -1.7 0 0.5 0.5 0.7 1 0.4 0.6 -0.4 0.9 -1.4 0.6 -2.3 -0.2 -1 -0.7 -3.4 -1.1 -5.4 -0.5 -3.4 -0.4 -3.8 1.5 -3.8 1.7 0 2 -0.6 2 -4.2 0 -2.4 -0.9 -8.6 -2 -13.8 -1.1 -5.2 -2.3 -12.4 -2.6 -16 -0.4 -3.6 -1.3 -7.9 -2.1 -9.7 -1.2 -2.6 -1.3 -3.9 -0.3 -6.8 0.6 -1.9 1.8 -3.5 2.6 -3.5 1.1 0 1.4 -2.6 1.6 -13.2 0.1 -7.3 0.2 -15.1 0.3 -17.3 0 -4.7 1.1 -12.7 3.1 -24.5 2 -11.2 2.2 -11.7 4.2 -12.2 1.5 -0.4 1.7 0.8 1.9 13.4 0.2 12.7 0.1 13.8 -1.6 13.8 -1.7 0 -1.8 0.8 -1.3 9 0.3 6.4 0.1 9 -0.7 9 -0.6 0 -1.1 1.5 -1.1 3.5 0 3.2 0.3 3.5 2.8 3.5 2.9 0 5.2 3 5.2 6.6 0 0.8 0.4 2.2 0.9 3.2 2.4 4.4 4.2 12.7 3.6 16.3 -0.6 3.6 -0.9 3.9 -3.8 3.9 -6 0 -10.6 -1.2 -11 -2.9 -0.3 -0.9 -0.5 -0.6 -0.6 0.9 -0.1 3.2 2.3 17.9 4.8 30 2.5 11.3 2.7 23.9 0.7 27.9 -0.8 1.5 -3.9 4.6 -6.9 6.9 -4.5 3.5 -6.1 4.2 -10 4.2 -3.7 0 -4.9 -0.4 -6.1 -2.2z m22.5 -127.9 c-1 -2.3 -1 -2.3 -1 0.7 -0.1 1.7 0.2 3.4 0.7 3.8 1.1 1.2 1.4 -1.8 0.3 -4.5z"/>
  <path d="M328 467.3 c-5 -2.6 -5.5 -3.1 -5.8 -6.5 -0.2 -2.9 0 -3.8 1.2 -3.8 0.9 0 1.6 0.6 1.6 1.3 0 0.8 2 2.4 4.5 3.6 4.4 2.2 4.6 2.2 9 0.5 2.5 -0.9 5 -2.3 5.6 -3 1.3 -1.6 3.9 -1.9 3.9 -0.5 0 0.5 -1.5 3.1 -3.2 5.7 -2.9 4.3 -3.8 4.9 -7.3 5.2 -2.8 0.2 -5.6 -0.5 -9.5 -2.5z"/>
  <path d="M387.8 467.3 c-1.5 -1 -3 -2.3 -3.2 -3 -1.2 -2.9 23.8 -33.3 27.3 -33.3 2.8 0 4.1 2.2 4.1 7 0 2.9 -0.7 5.4 -2 7 -1.1 1.4 -2 3.2 -2 4 0 2.4 -3.3 7.1 -9.5 13.8 -6.3 6.8 -9.4 7.8 -14.7 4.5z"/>
  <path d="M106.8 448.5 c-0.3 -4.9 0.6 -4.8 1.7 0.2 0.3 1.7 0.2 3.4 -0.3 3.7 -0.6 0.3 -1.2 -1.4 -1.4 -3.9z"/>
  <path d="M79.5 441.3 c-0.9 -2.7 -2.1 -5.8 -2.6 -7.1 -1.1 -2.8 -1.1 -12 0 -18.2 0.8 -4.5 0.8 -4.5 1 2 0.1 5.8 1.5 15 3.6 24.8 1.1 4.8 -0.1 3.9 -2 -1.5z"/>
  <path d="M128.7 444.3 c-0.4 -0.3 -0.7 -2.8 -0.7 -5.5 0 -4.8 0 -4.8 3.4 -4.8 3 0 3.4 0.4 4 3.1 1.3 6.7 0.9 7.9 -2.7 7.9 -1.9 0 -3.7 -0.3 -4 -0.7z"/>
  <path d="M200.1 432.4 c-2.6 -4.3 -2.6 -4.4 0 -4.4 1.2 0 2.3 -0.8 2.6 -2 0.7 -2.6 0.9 -2.6 5.4 1.5 3.8 3.4 5.9 4.4 5.9 2.6 0 -0.5 -0.7 -1.1 -1.5 -1.5 -3 -1.1 -1.6 -2.8 2 -2.4 3.1 0.3 3.5 0.1 3.5 -1.8 0 -1.3 0.4 -2.5 0.9 -2.9 0.5 -0.3 1.2 -1.9 1.6 -3.5 0.7 -3.3 3.5 -4.1 3.5 -1.1 0 1.1 0.4 2.1 1 2.3 0.6 0.2 0.5 2.1 -0.3 5.1 -1.4 5.3 -5.5 8.7 -10.6 8.7 -1.6 0 -4.8 0.7 -7.1 1.5 -2.3 0.8 -4.4 1.5 -4.5 1.5 -0.2 0 -1.2 -1.6 -2.4 -3.6z"/>
  <path d="M105.2 429.5 c0 -4.6 0.2 -5.4 0.8 -3.3 0.4 1.4 0.4 4.1 0 6 -0.7 2.8 -0.8 2.4 -0.8 -2.7z"/>
  <path d="M100 429 c0 -1.1 0.7 -2 1.5 -2 0.8 0 1.5 0.9 1.5 2 0 1.1 -0.7 2 -1.5 2 -0.8 0 -1.5 -0.9 -1.5 -2z"/>
  <path d="M73.8 425 c-0.5 -3 -0.4 -9.1 0.2 -13.5 2 -17.3 2.9 -30.4 2.6 -39.7 -0.3 -8.3 0.6 -17.1 2.9 -27.5 0.6 -2.6 2.5 -3.1 2.5 -0.8 0 0.8 0.4 1.5 1 1.5 0.6 0 0.7 1.8 0.3 4.5 -1.1 8.1 1.3 4.8 3.1 -4.2 1 -4.9 2.4 -10.6 3.2 -12.8 1.4 -4 1.4 -4 1 3.5 -0.3 4.1 -1.2 9.5 -2 11.9 -0.9 2.4 -1.6 6.2 -1.6 8.5 0 2.2 -0.7 7.7 -1.6 12.1 -0.9 4.4 -1.9 10.7 -2.4 14 -0.5 3.3 -1.4 9.2 -1.9 13 -0.6 3.9 -1.5 8.4 -2 10 -0.9 2.8 -0.9 2.7 -1 -1.7 -0.1 -2.7 -0.5 -4.8 -1 -4.8 -0.5 0 -1.2 7.1 -1.7 15.8 -0.8 13.4 -1 14.9 -1.6 10.2z m5.6 -33.6 c0.3 -2.6 0.5 -6.3 0.5 -8.3 -0.2 -3.5 -0.2 -3.5 -0.9 0.9 -0.4 2.5 -1.1 6.2 -1.5 8.3 -0.5 2.3 -0.4 3.7 0.2 3.7 0.6 0 1.3 -2.1 1.7 -4.6z m2.7 -29.4 c-0.3 -0.8 -1.1 2.1 -1.7 6.5 -0.6 4.4 -0.9 8.5 -0.5 9 0.8 1.4 3 -13.6 2.2 -15.5z m-2.1 -0.8 c0 -0.7 -0.4 -1 -1 -0.7 -0.5 0.3 -1 1.6 -1 2.8 0 1.8 0.2 1.9 1 0.7 0.5 -0.8 1 -2.1 1 -2.8z"/>
  <path d="M325 426.5 c0 -1.4 -0.8 -2.9 -2 -3.5 -2.9 -1.5 -3.4 -5 -1.6 -11.1 0.9 -2.9 1.6 -6.7 1.6 -8.5 0 -3 2 -6 3.3 -4.8 0.3 0.3 0.3 -0.3 0 -1.5 -0.7 -2.8 0.5 -2.7 1.6 0.2 1.5 3.8 2.2 12.7 1.1 12.7 -0.7 0 -0.7 0.6 -0.1 1.9 0.8 1.5 0.7 2 -0.5 2.5 -1.3 0.5 -1.5 1.6 -0.9 5.5 0.7 5.2 0 9.1 -1.6 9.1 -0.5 0 -0.9 -1.1 -0.9 -2.5z"/>
  <path d="M368.8 428.2 c-3 -0.6 -2 -3.1 4.4 -11 3.3 -4.1 7.8 -10.5 9.9 -14.1 7 -12.2 12.7 -39.9 14.1 -68.6 0.3 -4.1 0.6 -5 2.1 -4.9 1.2 0.1 1.7 -0.6 1.7 -2.3 0 -2.2 0.2 -2.4 1.5 -1.3 1.3 1 1.5 0.9 1.5 -0.9 0 -1.2 -0.4 -2 -0.9 -1.7 -0.5 0.3 -1.1 -0.4 -1.5 -1.7 -0.9 -3.3 -0.8 -3.6 1.4 -3.4 1.8 0.1 2 0.8 2 6.4 0 3.5 -0.4 6.3 -1 6.3 -0.5 0 -1 1.1 -1 2.5 0 1.4 -0.4 2.5 -0.8 2.5 -0.5 0 -1.2 4.4 -1.5 9.8 -1.4 23.6 -7 49.2 -13.2 60.2 -5 9.1 -16.5 22.6 -18.7 22.2z"/>
  <path d="M193.7 418.3 c-0.4 -0.3 -0.7 -1.2 -0.7 -1.9 0 -1 0.7 -1.1 3 -0.2 1.7 0.5 3.3 1.4 3.6 1.9 0.6 1 -4.9 1.2 -5.9 0.2z"/>
  <path d="M191.1 414 c-2.5 -1.6 -17.6 -51 -19.1 -62.5 -0.8 -5.9 -2.4 -12.7 -4 -16.5 -3.7 -9.1 -4.4 -12.1 -2.8 -13.1 1 -0.7 0.9 -0.9 -0.4 -0.9 -1 0 -1.8 -0.4 -1.8 -1 0 -0.5 0.7 -1 1.5 -1 1.3 0 5.5 11.4 6.8 18.5 0.2 1.1 0.7 2.7 1 3.5 0.9 2.2 8.7 34.9 8.7 36.5 0 1.6 5.7 19.4 7.1 21.7 0.5 1 0.9 2.4 0.9 3.2 0 0.8 1 2.7 2.3 4.3 1.3 1.5 3.1 4 4 5.5 1.7 2.8 1.7 2.8 -0.8 2.6 -1.4 -0.1 -3 -0.5 -3.4 -0.8z"/>
  <path d="M194.3 405.8 c-1.2 -1.9 -3.3 -6 -3.3 -6.4 0 -1.2 1.9 -0.1 2.4 1.4 0.3 0.9 1 2.7 1.6 4 1 2.4 0.6 3 -0.7 1z"/>
  <path d="M217 404.5 c0 -1.7 0.2 -1.8 2.4 -0.9 1.8 0.7 1.2 2.4 -1 2.4 -0.8 0 -1.4 -0.7 -1.4 -1.5z"/>
  <path d="M329.1 395.6 c-1.1 -3.8 -1 -4.8 0.4 -7.5 1.3 -2.6 2 -3.1 3.8 -2.5 2.6 0.7 5.7 3.3 5.7 4.6 0 0.5 -1.6 2.5 -3.5 4.5 -1.9 2 -3.5 4 -3.5 4.5 0 2.4 -1.7 0.2 -2.9 -3.6z"/>
  <path d="M190.6 397.3 c-0.7 -0.7 -3.6 -7.1 -3.6 -7.9 0 -1.4 1.9 0 2.3 1.6 0.3 1.1 0.6 2.4 0.7 2.8 0.1 0.4 0.6 1.5 1.1 2.5 1 1.8 0.8 2.2 -0.5 1z"/>
  <path d="M322.8 397.5 c-0.8 -0.9 0.3 -4.5 1.3 -4.5 0.5 0 0.9 0.6 0.9 1.3 0 1.7 -1.5 3.9 -2.2 3.2z"/>
  <path d="M343 392 l-2.5 -0.7 2.8 -1.2 c4 -1.6 6 -1.4 5.3 0.5 -0.3 0.9 -0.6 1.8 -0.6 2 0 0.6 -2 0.3 -5 -0.6z"/>
  <path d="M317 385 c-0.8 -0.5 -3.2 -1.7 -5.3 -2.6 -4.3 -1.9 -5.7 -4.5 -5.7 -10.6 0 -3.5 0.2 -3.9 1.5 -2.8 1.1 0.9 1.2 1.5 0.5 2 -0.7 0.5 -0.8 1.5 -0.1 3.2 1 2.6 2.9 3.8 6.2 3.8 1.7 0 1.9 -0.4 1.3 -2.2 -0.6 -1.9 -0.5 -2.1 0.8 -1.1 0.8 0.7 1.9 0.9 2.3 0.5 0.5 -0.4 0.5 -0.1 0.1 0.6 -1 1.6 0.4 3.9 1.4 2.2 0.4 -0.6 0.6 0.6 0.5 2.7 -0.3 6 -0.5 6.1 -3.5 4.3z"/>
  <path d="M184 376.1 c-0.5 -1.1 -1.2 -3.4 -1.3 -5 -0.2 -1.7 -0.7 -3.4 -1 -3.8 -0.4 -0.3 -0.7 -1.8 -0.7 -3.2 0.1 -2.2 0.2 -2.3 1 -0.9 0.6 0.9 1.1 2.9 1.3 4.5 0.2 1.6 0.7 3.4 1.1 4.1 0.4 0.7 0.5 1.2 0.2 1.2 -0.3 0 -0.1 1.1 0.4 2.5 1.1 3 0.5 3.3 -1 0.6z"/>
  <path d="M212.8 375.2 c-1 -0.2 -1.8 -1.1 -1.8 -2 0 -0.9 -0.3 -3.4 -0.6 -5.4 -0.9 -5.2 1.8 -5.2 3.5 0 1.6 4.9 1.2 7.9 -1.1 7.4z"/>
  <path d="M311.3 370.6 c-1 -1.2 -3.2 -3 -4.8 -3.9 -1.7 -0.9 -2.4 -1.6 -1.7 -1.7 0.6 0 1.2 -1.1 1.2 -2.4 0 -1.4 0.4 -2.7 0.9 -3 0.4 -0.3 0.6 0.6 0.3 1.9 -0.2 1.5 0 2.5 0.7 2.5 0.6 0 1.1 0.6 1.1 1.4 0 0.8 0.3 1.6 0.8 1.8 1.5 0.7 5.5 5.8 4.4 5.8 -0.6 0 -1.9 -1.1 -2.9 -2.4z"/>
  <path d="M224.6 371.1 c-1.9 -0.4 -3.5 -1.8 -4.7 -4 -2.7 -5.1 -3.9 -6 -4 -3 0 1.3 -0.3 1.8 -0.6 0.9 -0.2 -0.8 -0.8 -2.4 -1.3 -3.5 -2.1 -4.9 -5.9 -15.5 -7.5 -21 -1 -3.3 -2.2 -6.5 -2.7 -7.2 -1.3 -1.6 -1.4 -6.5 -0.5 -14 l0.8 -6.3 -2.9 0 c-2.7 0 -3 -0.3 -3.6 -4.6 -0.3 -2.5 -0.3 -5 0 -5.5 0.8 -1.3 7.8 -1.1 9.2 0.3 0.9 0.9 1.2 0.4 1.2 -2.5 0 -2 0 -4 0 -4.4 0.1 -0.5 -1.4 -1.1 -3.2 -1.4 -4.9 -0.8 -5.6 -1.5 -7.3 -7.1 -2.4 -8 -1.7 -13.2 2.3 -18 1.7 -2 6.7 -2.4 7.8 -0.7 0.4 0.7 2.5 0.9 5.5 0.7 4.3 -0.4 4.7 -0.3 3.9 1.2 -1.3 2.3 -0.3 3 3.1 2.3 4.2 -0.8 3.7 0.9 -2.6 10.2 -5 7.1 -8.4 14.9 -7.2 16.2 0.3 0.2 1.7 -1.9 3.1 -4.7 3.2 -6.4 5.1 -9.2 5.8 -8.5 0.3 0.3 2 -2.2 3.8 -5.7 3 -5.7 8.6 -13.2 9.9 -13.3 0.3 -0.1 1.6 -0.5 2.9 -0.9 1.3 -0.4 2.6 -0.6 2.9 -0.3 0.8 0.8 -1.7 4.8 -4.6 7.3 l-2.6 2.4 2.2 1.9 c1.2 1 2 2.1 1.7 2.3 -0.2 0.3 -1.3 4 -2.5 8.4 -1.1 4.3 -2.4 8.3 -2.9 8.9 -0.4 0.5 -1 3.3 -1.4 6 -0.5 4.1 -0.4 4.6 0.6 2.8 1.4 -2.8 2.8 -2.9 3.5 -0.3 0.9 3.4 4 2.4 5.3 -1.7 1.6 -5.1 3.9 -8.5 5.1 -7.7 2 1.2 5.4 -2.4 6.7 -7.2 0.8 -2.7 2 -6.9 2.7 -9.4 0.8 -2.5 1.6 -6.3 1.9 -8.5 1 -6.4 1.1 -23.9 0.2 -25.3 -1.3 -2.1 2.1 -9.9 4.6 -10.5 2 -0.6 2.1 -0.4 1.3 8.1 -0.5 4.8 -1 11.6 -1.1 15.2 -0.1 3.6 -0.7 8.5 -1.3 11 -0.6 2.5 -1.1 6.8 -1.1 9.6 0 2.8 -0.9 7.7 -2 10.9 -1.1 3.2 -2 6.5 -2 7.3 0 2.5 -4.2 7.4 -7.9 9.1 -5.5 2.5 -8.1 4.4 -8.1 5.9 0 0.7 -0.8 1.2 -1.7 1.1 -5.8 -0.5 -5.8 -0.6 -6 10.1 -0.1 7 0.2 10 1 10 0.8 0 0.8 0.3 -0.1 1.2 -0.7 0.7 -1.2 2.1 -1.3 3.3 -0.1 1.1 -0.7 0 -1.4 -2.5 -1 -3.5 -1.3 -3.9 -1.4 -1.8 -0.1 2.1 -0.5 2.5 -2.1 2.1 -1.1 -0.3 -2 -0.9 -2 -1.4 0 -0.5 -0.9 -0.9 -2 -0.9 -1.3 0 -2.9 -1.3 -4.2 -3.5 -2.6 -4.5 -4.3 -4 -4.4 1.3 -0.1 2.3 -0.7 5.5 -1.2 7.1 -0.8 2.3 -0.7 3.2 0.4 4.2 0.8 0.6 1.4 1.9 1.4 2.9 0 2.2 1.7 3.6 5.2 4.2 3.5 0.6 5 -1 5.1 -5.7 0.1 -2.7 0.5 -3.5 1.9 -3.5 1.3 0 1.8 0.8 1.8 3 0 2.1 0.4 2.8 1.4 2.4 0.8 -0.3 1.7 -1.5 1.9 -2.7 0.3 -2.1 0.4 -2.2 1.2 -0.2 0.5 1.1 2.2 3.9 3.8 6.3 2.7 4.1 2.9 4.9 2.5 12.3 -0.4 10 -2.1 11.2 -12.2 9z m-16.6 -54.1 c-1.8 -1.1 -2.2 -0.7 -1.4 1.4 0.5 1.3 1 1.4 1.8 0.6 0.8 -0.8 0.7 -1.3 -0.4 -2z m6.1 -16.2 c1.8 -5.3 2.5 -9.1 0.9 -5.3 -3.5 8.6 -5 12.8 -3.9 11.8 0.6 -0.6 2 -3.6 3 -6.5z"/>
  <path d="M178.2 352.1 c-1.2 -4 -1.6 -6.8 -0.7 -5.9 1 0.9 3.3 9.8 2.6 9.8 -0.4 0 -1.3 -1.7 -1.9 -3.9z"/>
  <path d="M311.7 346.2 c-1.7 -0.3 -1.7 -0.5 -0.3 -2.1 0.9 -0.9 1.9 -3.4 2.4 -5.6 1 -4.8 3.2 -5.9 3.2 -1.6 0 1.6 -0.4 3.3 -1 3.6 -0.5 0.3 -1 1.7 -1 3 0 2.7 -0.7 3.3 -3.3 2.7z"/>
  <path d="M84.1 340.5 c0 -1.1 0.4 -2.7 0.9 -3.5 0.9 -1.3 1 -1.3 0.9 0 0 0.8 -0.4 2.4 -0.9 3.5 l-0.9 2 0 -2z"/>
  <path d="M200.7 341.3 c-0.8 -1.3 -7.5 -18.7 -8.2 -21 -0.8 -2.8 3.2 -7.4 4.6 -5.2 0.5 0.8 0.9 2.7 0.9 4.4 0 1.6 0.6 4.7 1.4 7 1.2 3.6 2.3 7 4.1 13.3 0.5 1.6 0.2 2.2 -0.9 2.2 -0.8 0 -1.7 -0.3 -1.9 -0.7z"/>
  <path d="M122.1 322.9 c-0.2 -3.8 1 -9 2 -8.4 1.2 0.8 2.2 -1.4 1.4 -3.3 -0.6 -1.5 -0.8 -1.5 -1.5 0.3 -0.7 1.6 -0.9 1.7 -0.9 0.3 -0.1 -2.5 2.7 -4.8 6 -4.8 2.7 0 2.9 0.3 2.9 3.8 0 2.9 -0.7 4.5 -2.8 6.5 -1.5 1.5 -3.5 2.7 -4.4 2.7 -1 0 -1.8 1 -2.1 2.8 l-0.4 2.7 -0.2 -2.6z"/>
  <path d="M119 320.6 c0 -0.8 -0.6 -1.7 -1.2 -1.9 -0.8 -0.3 -0.6 -0.6 0.5 -0.6 1.1 -0.1 1.7 0.6 1.7 1.9 0 1.1 -0.2 2 -0.5 2 -0.3 0 -0.5 -0.6 -0.5 -1.4z"/>
  <path d="M94 319.2 c0 -0.7 -0.4 -1 -1 -0.7 -1.4 0.9 -1.3 0.3 0.9 -4.8 3.6 -8.4 7.4 -15.7 8.2 -15.7 1.3 0 0 4.3 -2.1 7.3 -1.2 1.5 -1.8 3.3 -1.4 3.9 0.4 0.6 0.3 0.8 -0.3 0.5 -1.2 -0.7 -2.6 2 -1.8 3.3 0.3 0.4 -0.2 1 -1 1.4 -0.8 0.3 -1.5 1.3 -1.5 2.3 0 1.5 0.2 1.6 1 0.3 0.5 -0.8 1 -1 1 -0.5 0 0.6 -0.5 1.7 -1 2.5 -0.7 1.1 -1 1.1 -1 0.2z"/>
  <path d="M91 312.8 c0 -1.6 0.5 -2.8 1 -2.8 1.3 0 1.3 2 0 4 -0.8 1.2 -1 0.9 -1 -1.2z"/>
  <path d="M161.5 312.9 c-0.4 -1.2 -2.2 -4.8 -4.1 -8 -3.9 -6.6 -4 -6.9 -1.6 -6.9 1.8 0.1 4.1 3.9 7.3 12.3 1.6 3.9 1.6 4.7 0.5 4.7 -0.8 0 -1.8 -1 -2.1 -2.1z"/>
  <path d="M93 307 c0 -1.1 0.5 -2 1 -2 0.6 0 1 -1.8 1 -4 0 -3.4 0.4 -4.2 2.6 -5 1.4 -0.6 2.7 -1 2.9 -1 0.3 0 -1.1 3.2 -3.1 7 -1.9 3.9 -3.7 7 -3.9 7 -0.3 0 -0.5 -0.9 -0.5 -2z"/>
  <path d="M120.1 308 c-0.1 -0.8 -1 -2.1 -2.1 -2.8 -2.4 -1.5 -2.6 -3.2 -0.4 -3.2 1 0 1.4 -0.7 1.2 -2.2 -0.2 -1.5 0.3 -2.4 1.5 -2.6 1.4 -0.3 1.7 0.3 1.6 3.5 -0.1 3.9 -1.6 10 -1.8 7.3z"/>
  <path d="M306.7 304.8 l-1.9 -3.3 2.1 1.9 c1.2 1.1 2.1 1.5 2.1 0.9 0 -1.6 -3.6 -4.4 -4.5 -3.6 -0.4 0.5 -0.5 0.3 -0.2 -0.3 0.4 -0.6 -0.1 -1.9 -1.1 -2.7 -1.5 -1.4 -1.7 -2.6 -1.1 -8.9 0.4 -4 0.8 -8.5 0.8 -10 0.1 -1.6 0.6 -2.8 1.1 -2.8 0.6 0 1 2.9 1 6.8 0.1 7 1.7 13.1 4.4 16.1 0.9 0.9 1.9 3.2 2.2 4.9 0.6 2.8 0.4 3.1 -1.1 2.5 -1.3 -0.4 -1.6 -0.3 -1.1 0.5 0.4 0.7 0.4 1.2 -0.1 1.2 -0.4 0 -1.6 -1.5 -2.6 -3.2z"/>
  <path d="M189.4 302.3 c-0.9 -6.6 -3.3 -12.2 -5.6 -13.4 -2.7 -1.4 -4.8 -6.9 -4.8 -12.4 0 -3.2 0.4 -4.5 1.4 -4.5 1.4 0 2.4 2.4 3.1 6.9 0.2 1.3 1.8 3.9 3.6 5.7 2.6 2.6 3.4 4.7 4.5 10.6 1.7 9.6 1.7 11.8 0 11.8 -1 0 -1.7 -1.6 -2.2 -4.7z"/>
  <path d="M231.4 301 c0.3 -0.8 1 -3.4 1.6 -5.7 0.6 -2.4 1.4 -4.3 1.9 -4.3 0.8 0 -2.1 9.5 -3.3 10.7 -0.4 0.4 -0.5 0.1 -0.2 -0.7z"/>
  <path d="M401 297.4 c0 -2.1 -0.5 -4.6 -1 -5.4 -0.8 -1.2 -1 -0.9 -1 1.3 0 1.7 -0.5 2.7 -1.5 2.7 -1.9 0 -2.1 -5.6 -0.2 -6.3 0.7 -0.3 0.5 -0.6 -0.5 -0.6 -1.3 -0.1 -1.8 -0.9 -1.8 -3.1 0 -2.2 0.5 -3 1.8 -3 1.1 0 1.3 -0.3 0.6 -0.8 -0.7 -0.4 -1.5 -3.4 -1.9 -6.6 -0.4 -3.3 -1.9 -8.3 -3.2 -11.2 -1.6 -3.5 -2.2 -6.1 -1.7 -7.8 0.4 -1.6 0.2 -2.6 -0.4 -2.6 -0.7 0 -0.9 -1.4 -0.5 -3.5 0.4 -2.4 0 -4.4 -1.6 -7 -1.1 -2 -2.1 -4.7 -2.1 -6 0 -1.3 -0.4 -2.7 -1 -3 -0.5 -0.3 -1 -1.5 -1 -2.5 0 -2.1 -3.4 -4.4 -5.4 -3.7 -2.2 0.9 -4 -1.1 -4 -4.5 -0.1 -2.8 -0.5 -3.3 -2.8 -3.6 -2.2 -0.3 -2.8 -0.9 -2.8 -2.7 0 -1.3 -0.3 -3 -0.6 -3.8 -0.4 -1 0.5 -1.6 2.9 -2.1 5.1 -0.9 6.5 -6.6 2.7 -10.1 -1.1 -1 -2 -2.3 -2 -3 0 -0.6 -1.8 -2.9 -4.1 -4.9 -3.1 -2.9 -3.9 -4.4 -3.7 -6.4 0.2 -1.5 0.9 -2.6 1.6 -2.5 1.9 0.4 1.4 -1.8 -1 -4.4 -1.2 -1.3 -1.6 -2.3 -1 -2.3 0.6 0 1.5 0.6 1.9 1.2 0.4 0.7 1.7 1.8 2.7 2.4 2.5 1.3 3.2 2.7 4.7 9.7 1.1 5.3 5.8 13.1 9.6 16.2 0.7 0.6 2.1 3.5 3.1 6.5 1 3 2.3 5.4 3 5.3 1.3 -0.3 2.8 4.4 1.8 5.4 -0.3 0.4 -0.6 -0.3 -0.6 -1.5 0 -1.2 -0.5 -2.2 -1.1 -2.2 -0.8 0 -0.9 1.1 -0.5 3.3 0.4 1.7 1.1 5.2 1.6 7.7 3.3 18.2 5.2 27 6.7 31.9 2 6.6 3.9 9.4 2.9 4.1 -1.1 -5.1 -1.7 -11.7 -1 -10.2 0.3 0.6 1.2 1.2 2.1 1.2 1.1 0 1.4 1 1.2 3.8 -0.1 2 0.3 4.8 1 6.1 0.9 1.7 1.1 4 0.6 8 -0.4 3.1 -0.9 9.5 -1 14.4 -0.2 8.6 -1.5 13.8 -1.5 6.1z"/>
  <path d="M150.8 293.2 c-5.1 -4 -6.1 -5.8 -2.5 -4.7 1.2 0.3 3.3 0.9 4.7 1.2 3.3 0.7 6 3.2 6 5.5 0 2.8 -3 2.1 -8.2 -2z"/>
  <path d="M104.8 294.4 c-0.9 -0.9 6.1 -13 10.2 -17.5 2.1 -2.4 3.9 -3.9 4 -3.2 0 1.6 -3.9 8.4 -6.3 10.7 -1.1 1 -3.2 3.8 -4.7 6.2 -1.5 2.4 -2.9 4.1 -3.2 3.8z"/>
  <path d="M99.4 292.7 c-1.2 -3.1 12.9 -22.6 16.4 -22.7 1.8 0 2.2 -0.6 2.2 -3.1 0 -2.2 0.5 -3.2 2 -3.6 1.1 -0.3 2 -1.2 2 -1.9 0 -0.8 1 -1.4 2.5 -1.4 3.2 0 3.2 0.5 -0.7 7 -2.4 3.8 -4 5.4 -5.8 5.7 -1.4 0.2 -2.6 0.7 -2.8 1.2 -0.1 0.4 -2.3 3.5 -4.7 6.9 -2.5 3.4 -4.5 6.4 -4.5 6.7 0 1.1 -4.4 6.5 -5.2 6.5 -0.5 0 -1.1 -0.6 -1.4 -1.3z"/>
  <path d="M132.4 288.4 c0.5 -1.3 0.2 -1.5 -1.4 -1.1 -1.1 0.3 -1.8 0.1 -1.5 -0.4 0.8 -1.2 7.1 -2.2 9.1 -1.5 1.4 0.5 1.2 0.9 -0.9 2.6 -3.1 2.5 -6.2 2.7 -5.3 0.4z"/>
  <path d="M142.7 287.5 c-1.5 -1.1 -1.6 -1.3 -0.2 -1.9 2.6 -0.9 1.7 -2.6 -1.5 -2.6 -1.8 0 -3 -0.5 -3 -1.3 0 -1.3 5 -6.7 6.2 -6.7 1 0 1.7 7.4 1 10.7 -0.6 2.8 -0.9 3 -2.5 1.8z"/>
  <path d="M259.2 279 c0 -3 0.4 -6.8 0.8 -8.5 0.7 -2.7 0.8 -2.6 0.8 1.5 0.1 2.5 -0.3 6.3 -0.7 8.5 -0.9 4 -0.9 4 -0.9 -1.5z"/>
  <path d="M181.3 271.3 c-2 -0.7 -1.5 -2.3 0.7 -2.3 1.1 0 2 0.4 2 0.9 0 1.3 -1.2 1.9 -2.7 1.4z"/>
  <path d="M209.2 267.2 c-0.7 -0.5 0.8 -0.9 3.8 -1 2.9 0 4.8 0.3 4.5 0.9 -0.7 1.1 -6.5 1.2 -8.3 0.1z"/>
  <path d="M227.2 264.9 c-2.2 -0.8 -1.9 -1.2 4.9 -7.6 8 -7.7 7.9 -7.6 9.7 -6.4 2.2 1.3 -0.3 9.1 -2.8 9.1 -2.5 0 -2.5 -0.8 0.1 -3.6 1.2 -1.2 1.8 -2.7 1.4 -3.4 -0.4 -0.6 -1.7 0.5 -3.3 2.8 -5.9 8.6 -7.5 10.1 -10 9.1z"/>
  <path d="M396.6 253.8 c-0.3 -1.3 -0.5 -3.4 -0.5 -4.8 0.1 -1.5 0.5 -0.7 1 1.9 0.9 4.7 0.6 6.8 -0.5 2.9z"/>
  <path d="M129 250 c0.1 -0.8 0.7 -2.6 1.5 -4 0.8 -1.4 1.4 -3.8 1.5 -5.4 0 -2.4 0.2 -2.6 1.4 -1.6 1.1 0.8 1.2 1.8 0.6 3.4 -1.4 3.7 -5 9.2 -5 7.6z"/>
  <path d="M135.3 248.4 c-1.5 -0.7 -0.2 -4.6 6.3 -18.1 2.9 -6 5.6 -10.4 6.7 -10.6 0.9 -0.3 1.7 -1.2 1.7 -2.1 0 -0.9 0.4 -1.6 0.9 -1.6 0.5 0 -0.8 4.4 -2.8 9.8 -2.1 5.3 -4.4 11.5 -5 13.7 -2.9 9.5 -3.8 10.5 -7.8 8.9z"/>
  <path d="M157.5 243.9 c1.5 -5.6 2.5 -7.3 2.5 -4.3 0 3 -2 9.4 -3 9.4 -0.4 0 -0.2 -2.3 0.5 -5.1z"/>
  <path d="M182 247 c-1.2 -0.8 -1.2 -1 0.5 -1.1 1.1 0 1.4 -0.3 0.7 -0.6 -1.5 -0.6 -0.6 -2.3 1.4 -2.3 1.7 0 1.8 1.1 0.2 3.3 -0.9 1.2 -1.7 1.4 -2.8 0.7z"/>
  <path d="M262.1 243.5 c0.1 -2.2 0.5 -5.1 1 -6.5 0.8 -2.3 0.8 -2.2 0.6 0.7 -0.2 1.8 0.1 3.4 0.6 3.6 0.6 0.2 0.3 1.6 -0.6 3.2 l-1.6 3 0 -4z"/>
  <path d="M308.2 242 c0 -1.4 0.4 -3.6 0.8 -5 l0.8 -2.5 0 2.5 c0 1.4 -0.4 3.6 -0.8 5 l-0.8 2.5 0 -2.5z"/>
  <path d="M133.6 237.4 c-0.8 -2.2 -0.8 -2.4 0.7 -2.4 0.6 0 2.7 -3.4 4.6 -7.5 1.8 -4.1 4 -7.5 4.7 -7.5 1.8 0 1.8 0.4 -0.5 4.8 -7.4 14.9 -8.2 16 -9.5 12.6z"/>
  <path d="M310 233.3 c0 -4.2 8.5 -26 11.3 -29 1.1 -1.3 2.2 -2.1 2.4 -1.9 0.3 0.2 -1.4 4.7 -3.6 9.9 -2.3 5.3 -4.1 10.1 -4.1 10.7 0 1.3 -4.8 11 -5.5 11 -0.3 0 -0.5 -0.3 -0.5 -0.7z"/>
  <path d="M255.2 230.3 c0.2 -2.3 0.8 -2.9 3.6 -3.1 2.6 -0.3 3.2 0 3.2 1.7 0 2.2 -0.4 2.6 -4.3 3.5 -2.6 0.6 -2.8 0.5 -2.5 -2.1z"/>
  <path d="M172 224 c0 -0.5 0.7 -1 1.5 -1 0.8 0 1.5 0.5 1.5 1 0 0.6 -0.7 1 -1.5 1 -0.8 0 -1.5 -0.4 -1.5 -1z"/>
  <path d="M174.1 221.1 c-2 -1.3 -0.1 -8.5 2.3 -8.9 1.7 -0.4 1.8 0.1 1.2 3.9 -0.8 5.1 -1.6 6.2 -3.5 5z"/>
  <path d="M158.1 199 c-0.1 -0.8 0.3 -2.2 0.9 -3 0.6 -0.9 0.5 -1.7 -0.2 -2.1 -0.7 -0.4 -0.7 -0.9 0.1 -1.3 1.9 -1.2 2.3 2.1 0.7 5.1 -0.8 1.5 -1.5 2.1 -1.5 1.3z"/>
  <path d="M163.9 194 c1.9 -5 8 -15.4 8.7 -14.7 0.7 0.7 -2.4 7.8 -4.4 10 -1.1 1.2 -2.8 3.9 -3.7 6 -2.3 5.5 -2.8 4.5 -0.6 -1.3z"/>
  <path d="M242.1 195.7 c-1.4 -1.8 -0.4 -2.7 2.9 -2.7 3.8 0 4.4 1.1 1.4 2.7 -3.2 1.6 -2.9 1.6 -4.3 0z"/>
  <path d="M326 193.7 c0 -1.4 0.5 -2.9 1 -3.2 0.7 -0.4 0.8 0.3 0.4 2.2 -0.9 3.8 -1.4 4.2 -1.4 1z"/>
  <path d="M259.2 191.7 c-3.8 -3.9 -5.5 -8 -4 -9.5 1.5 -1.5 3.8 1 3.8 4.1 0 1.3 1 3.6 2.1 5.1 3.1 3.9 1.8 4.1 -1.9 0.3z"/>
  <path d="M250.8 191.8 c0.5 -2.1 2.5 -2.3 4.1 -0.4 0.9 1.1 0.6 1.4 -1.7 1.8 -2.4 0.3 -2.8 0.1 -2.4 -1.4z"/>
  <path d="M246.5 180.1 c-0.6 -1.1 0.9 -2.3 1.9 -1.4 0.9 0.9 0.7 2.3 -0.3 2.3 -0.6 0 -1.2 -0.4 -1.6 -0.9z"/>
  <path d="M248.7 172.9 c-1.5 -1.9 -4 -4.6 -5.4 -6.1 -1.8 -1.9 -2.2 -2.8 -1.2 -2.8 2.3 0 5.5 2.7 7.9 6.5 3 4.8 2 6.5 -1.3 2.4z"/>
  <path d="M328.2 175.3 c-1.9 -0.7 -4.4 -6.2 -3.7 -8.3 0.9 -2.9 2.1 -2.4 4 1.5 1.8 4 1.7 7.4 -0.3 6.8z"/>
  <path d="M352.4 172.5 c-1.6 -1.3 -3.4 -2.4 -4 -2.5 -0.6 0 -1.7 -0.7 -2.5 -1.6 -1 -1.3 -1 -1.7 0 -2.4 3.2 -1.9 -1.7 -6.8 -5.8 -5.8 -0.8 0.2 -1.6 -0.3 -1.8 -1 -0.4 -1 0.4 -1.2 3.3 -0.7 5.1 0.9 7.6 2.6 9.4 6.1 0.8 1.6 2.4 4.3 3.7 6.1 2.9 4 1.6 5 -2.3 1.8z"/>
  <path d="M238 165.3 c-0.8 -0.3 -2.8 -1.7 -4.3 -2.9 -2 -1.7 -4.3 -2.4 -7.5 -2.6 -4.1 -0.1 -4.2 -0.2 -1.2 -0.5 6.7 -0.8 11.5 0.5 13.4 3.7 0.9 1.7 1.6 3 1.4 2.9 -0.2 0 -1 -0.3 -1.8 -0.6z"/>
  <path d="M327.5 163.1 c-0.7 -1.2 0.9 -2.2 5.1 -3.1 3.6 -0.8 4 -0.5 2.4 2 -0.6 1 -1 1.1 -1 0.3 0 -1.8 -2.9 -1.6 -3.6 0.2 -0.7 1.7 -2 2 -2.9 0.6z"/>
  <path d="M185 162.2 c0 -1.5 7.1 -4.2 10.8 -4.1 l3.7 0.1 -3.5 0.7 c-1.9 0.4 -4.9 1.5 -6.7 2.4 -3.6 1.9 -4.3 2.1 -4.3 0.9z"/>
  <path d="M211.8 158.9 c-1.5 -1.6 -1.4 -1.7 2.2 -2.1 2.1 -0.2 4.7 -0.1 5.9 0.2 1.8 0.4 1.4 0.8 -2.1 2 -3.9 1.4 -4.4 1.4 -6 -0.1z"/>
  <path d="M207 154.9 c0 -1.2 2.4 -1.7 4.5 -0.9 1.7 0.6 1.5 0.8 -1.3 1.2 -1.7 0.2 -3.2 0.1 -3.2 -0.3z"/>
 </g>
 <g fill="#f9e9b3">
  <path d="M99 486.3 c-5.8 -4.5 -6 -5.3 -1.4 -5.3 2.8 0 5 -1 9.1 -4.2 3 -2.3 6.1 -5.4 6.9 -6.9 1.8 -3.5 1.1 -15.2 -1.5 -26.4 -2.5 -10.4 -5.5 -34 -4.6 -36.3 0.6 -1.5 0.8 -1.4 2 0.7 l1.3 2.4 0.7 -2.2 c0.5 -1.8 0.9 -2 2.1 -1 0.8 0.6 1.4 2.3 1.4 3.6 0 2 0.4 2.4 2 2 1.1 -0.3 2.3 -0.1 2.6 0.4 0.3 0.5 1.1 0.9 1.8 0.9 1.5 0 2.8 -4.8 1.6 -5.5 -0.5 -0.3 -1.1 -2.3 -1.5 -4.5 -0.4 -2.2 -1.1 -4.2 -1.6 -4.6 -0.5 -0.3 -0.9 -1.5 -0.9 -2.7 -0.1 -3.8 -2.3 -6.4 -5.1 -6.2 -2.4 0.2 -2.7 -0.2 -3.3 -4.3 -0.6 -4.7 0.1 -9.2 1.5 -9.2 0.4 0 0.5 -4.9 0.2 -11 -0.5 -9.4 -0.4 -11 0.9 -11 0.9 0 1.8 0.9 2.1 2 0.3 1.1 1.2 2 2 2 1.8 0 2.7 3 2.7 9.7 0 2.8 0.5 7.4 1.1 10.1 0.8 3.3 0.8 5.5 0.2 6.7 -0.6 1.1 -0.7 2.8 -0.2 4.4 9.3 28.5 10.4 31 12.1 29.3 0.6 -0.6 -0.5 -5.6 -2.7 -12.7 -2 -6.4 -3.9 -12.8 -4.1 -14.3 -0.3 -1.5 -0.9 -3.2 -1.5 -3.8 -1.2 -1.5 -4.1 -42.2 -3.1 -44 0.4 -0.8 1.3 3.9 2 10.6 0.7 6.6 2.2 14.6 3.3 17.7 1.1 3.2 4 13 6.5 21.8 5.5 19.6 11.8 38.3 15.1 45 1.4 2.7 5.3 9.2 8.7 14.4 5.8 9 6.8 12.2 4.5 14.6 -0.5 0.5 -0.9 1.6 -0.9 2.5 0 0.8 -1 2 -2.3 2.6 -1.2 0.6 -3.8 2 -5.7 3.2 l-3.6 2.2 -6.9 -7 c-4.6 -4.6 -9.4 -11.1 -14 -18.7 -3.8 -6.4 -7.6 -11.9 -8.2 -12.1 -2.1 -0.6 -1.5 4.2 1.7 13 1.7 4.5 3 9.4 3 10.8 0 2.7 -4.5 8 -6.8 8 -1.5 0 -3.2 4.1 -3.2 7.6 0 1.3 -0.6 2.4 -1.3 2.4 -0.7 0 -2.7 1.6 -4.4 3.5 -1.7 1.9 -3.7 3.5 -4.5 3.4 -0.7 0 -3.3 -1.6 -5.8 -3.6z m46 -42.9 c-1.8 -4.3 -2.5 -5.2 -3.6 -4.3 -1 0.8 -1 1.6 0.5 4.2 1 1.8 2.4 4.3 3.1 5.7 2.3 4.4 2.3 0.2 0 -5.6z"/>
  <path d="M323.8 473.2 c-2.1 -1.5 -3.8 -3.5 -3.8 -4.4 0 -1 -0.4 -1.8 -0.8 -1.8 -1.1 0 -3.2 -4.5 -3.2 -6.7 0 -0.9 2 -6 4.4 -11.2 3.9 -8.3 4.5 -10.6 4.7 -16.9 0.1 -3.9 -0.1 -7.5 -0.4 -7.9 -1.4 -1.3 -0.6 -3.1 1.4 -3.6 2.1 -0.6 2.1 -0.3 1.5 5 -0.8 7.3 -2.1 25.5 -2.1 31.3 0 4.5 0 4.5 5.7 7.3 5.3 2.7 5.8 2.8 8 1.3 5 -3.5 6.3 -1.2 2.2 4.1 -5.1 6.7 -11.5 8 -17.6 3.5z"/>
  <path d="M389.7 473.4 c-0.3 -0.4 -0.2 -1.4 0.3 -2.4 1.3 -2.5 0.3 -3.1 -4.2 -2.4 -4.8 0.8 -4.9 -0.3 -0.7 -6.8 3 -4.7 4.9 -6.6 3 -3 -1.1 2 -0.7 2.8 2.6 5.6 2.3 1.9 2.3 1.9 7 -2.5 2.7 -2.4 5.3 -5.1 5.8 -6 0.6 -0.8 2 -3.1 3.2 -5 1.3 -1.9 2.3 -4 2.3 -4.7 0 -0.8 0.9 -2.7 2.1 -4.3 2.3 -3.3 2.2 -5.7 -0.4 -7.3 -1.5 -0.9 -2.1 -0.7 -3.3 0.9 -0.8 1.1 -3.8 4.5 -6.7 7.5 -2.8 3.1 -6.7 7.3 -8.5 9.5 l-3.3 4 3.2 -4.5 c1.8 -2.5 6.6 -8.2 10.7 -12.7 7.2 -8.1 7.5 -8.3 11.9 -8.3 3.9 0 4.4 0.2 3.8 1.9 -0.3 1 0 3 0.6 4.4 1 2.2 0.7 3.1 -2.2 7.4 -4.6 6.8 -14.4 19 -19.8 24.6 -4.3 4.5 -6 5.4 -7.4 4.1z"/>
  <path d="M89 471.4 c0 -1 -0.3 -3 -0.6 -4.4 -0.6 -2.4 -0.6 -2.4 0.9 -0.5 0.8 1.1 1.3 2.8 1.1 3.9 -0.5 2.6 -1.4 3.3 -1.4 1z"/>
  <path d="M77.3 435.1 c-0.7 -2.2 -1.3 -6.7 -1.2 -9.8 l0.1 -5.8 1.4 8.5 c1.7 9.7 1.5 13 -0.3 7.1z"/>
  <path d="M202.8 435.9 c-2.1 -1.2 -2.4 -3.9 -0.5 -3.9 0.6 0 2.5 -0.7 4 -1.5 2 -1 3.4 -1.2 4.7 -0.5 2.4 1.3 6.7 -0.8 8 -4 0.6 -1.4 1.4 -4.5 1.8 -7 0.6 -3.6 1.2 -4.5 2.7 -4.5 2.2 0 3.2 3.4 1.9 6.3 -0.4 0.9 -0.8 2.4 -1 3.2 -0.1 0.8 -0.4 2.4 -0.7 3.4 -0.2 1 -2.3 2.9 -4.8 4.2 -2.4 1.3 -3.9 2.4 -3.4 2.4 0.6 0 0.1 0.7 -0.9 1.5 -2.3 1.7 -9.2 1.9 -11.8 0.4z"/>
  <path d="M72 431.2 c-2.6 -0.9 -3 -2.4 -3 -11.2 0 -16.1 2.7 -37.7 7.2 -58.2 1.5 -7 2.9 -7.6 2.3 -1 -0.2 2.6 -0.2 4.1 0.1 3.5 1.4 -3.2 2.9 0.2 1.7 3.7 -1 2.6 -1 8.4 -0.1 9.7 0.5 0.7 0.5 1.4 -0.2 1.8 -0.5 0.3 -1 1.9 -1 3.5 0 1.7 -0.5 5 -1.2 7.5 -1.1 3.9 -1 4.8 0.2 5.6 1.3 0.8 1.3 1.1 -0.1 2.2 -1.4 1 -1.8 4.1 -2.4 16.2 -0.4 8.3 -1 15.5 -1.4 16.1 -0.3 0.6 -1.3 0.9 -2.1 0.6z"/>
  <path d="M370 429 c0 -0.5 -0.7 -1 -1.5 -1 -2.6 0 -1.7 -1.5 5.5 -10.2 3.8 -4.5 8.5 -11.2 10.5 -14.8 6.2 -11 11.8 -36.6 13.2 -60.2 0.3 -5.4 1 -9.8 1.5 -9.8 1 0 1.1 -2.7 0.1 -3.3 -0.5 -0.2 -0.2 -0.2 0.5 -0.1 0.7 0.2 1.2 -0.7 1.2 -2.2 0 -1.4 0.4 -2.3 1 -1.9 0.6 0.4 0.8 1.2 0.4 1.8 -0.3 0.7 0.1 0.4 0.9 -0.6 1.4 -1.7 1.6 -1.2 2.1 5.5 2 23.2 -0.9 46.6 -9 73.4 -2 6.5 -4.1 13.2 -4.7 14.7 -1.6 3.9 -7.4 6.7 -13.7 6.7 -3.6 0 -5.2 0.4 -5.6 1.5 -0.7 1.7 -2.4 2 -2.4 0.5z m31.7 -69.2 c-0.2 -1.3 -0.4 -0.3 -0.4 2.2 0 2.5 0.2 3.5 0.4 2.3 0.2 -1.3 0.2 -3.3 0 -4.5z m1 -9 c-0.2 -1.3 -0.4 -0.5 -0.4 1.7 -0.1 2.2 0.1 3.2 0.4 2.3 0.2 -1 0.2 -2.8 0 -4z"/>
  <path d="M321 421 c-0.6 -1.1 -0.9 -3.1 -0.7 -4.3 0.4 -2 0.4 -1.9 0.6 0.4 0 1.4 0.6 3 1.3 3.7 0.6 0.6 0.9 1.4 0.6 1.8 -0.4 0.3 -1.2 -0.4 -1.8 -1.6z"/>
  <path d="M327.4 406.3 c-0.7 -2.7 -3 -3 -3.7 -0.5 -0.3 0.9 -0.5 -0.1 -0.4 -2.3 0.1 -2.8 0.6 -4 1.7 -4 0.9 0 1.5 -0.9 1.4 -2.3 -0.2 -3.8 1.5 -1 2.4 4 1 5 -0.3 9.2 -1.4 5.1z"/>
  <path d="M322.6 397.2 c-0.3 -0.5 -0.2 -2.1 0.3 -3.4 0.8 -2 1 -2.1 1.6 -0.6 0.8 2 -0.9 5.6 -1.9 4z"/>
  <path d="M187.7 391.6 c-0.4 -1 -0.5 -2.1 -0.2 -2.4 0.9 -0.9 1.7 0.6 1.3 2.5 -0.3 1.7 -0.4 1.7 -1.1 -0.1z"/>
  <path d="M314 383.8 c-6.4 -3.4 -6.5 -3.5 -7.5 -6.6 -0.7 -2.3 -0.5 -2.2 3.6 0.7 6.5 4.8 7.9 4.2 5.3 -2.4 -0.7 -1.7 -0.5 -1.8 0.8 -0.8 0.8 0.7 1.7 1 2 0.7 0.3 -0.3 0.5 0.3 0.5 1.3 -0.1 1 0.3 1.7 0.9 1.6 0.9 -0.2 1.2 7.4 0.2 8.1 -0.2 0.2 -2.8 -1 -5.8 -2.6z"/>
  <path d="M220.7 380.1 c-1.4 -1.7 -3.2 -6 -4.2 -10.3 -1 -4 -2.1 -7.7 -2.5 -8.3 -0.4 -0.5 -1 -2 -1.2 -3.2 -0.5 -1.8 -0.3 -2 1.1 -1.2 0.9 0.5 2.8 1.3 4.2 1.8 1.5 0.5 3.5 2.6 4.6 4.7 1.4 2.8 2.8 4 5.1 4.5 4.7 1 5.7 -0.3 5.8 -7.3 0.1 -8.4 0.2 -9 1.7 -8.6 0.6 0.3 1.5 2.2 1.9 4.4 0.3 2.1 1.1 5.6 1.6 7.6 0.8 2.9 0.7 4 -0.4 4.9 -1.9 1.5 -7.4 9.7 -7.4 10.9 0 1.3 -3.4 3 -5.8 3 -1.1 0 -3.1 -1.3 -4.5 -2.9z"/>
  <path d="M234.5 379 c0.8 -2.6 4.5 -7.2 4.5 -5.4 0 0.5 -1.2 2.6 -2.6 4.5 -2.3 2.9 -2.5 3.1 -1.9 0.9z"/>
  <path d="M213.4 375.2 c-0.6 -0.4 -1.4 -2.4 -1.8 -4.4 -0.6 -3.1 -0.4 -3.8 0.9 -3.8 0.8 0 1.5 0.1 1.5 0.3 0 0.1 0.4 1.6 0.9 3.3 1 3.4 0.2 5.7 -1.5 4.6z"/>
  <path d="M117 357 c0 -0.8 -0.7 -2.8 -1.5 -4.4 -1.7 -3.2 -0.7 -5.3 1.9 -4.3 1.8 0.7 2.2 6.3 0.6 8.7 -0.9 1.3 -1 1.3 -1 0z"/>
  <path d="M82.2 346.8 c-0.6 -0.6 -1.2 -0.8 -1.2 -0.2 0 0.5 -0.4 0.3 -0.9 -0.5 -0.6 -0.9 -0.4 -2.8 0.3 -5 0.7 -2 1.6 -6.1 1.9 -9.1 1.1 -9.3 8.8 -28.7 14.8 -37.1 1 -1.5 1.9 -3.1 1.9 -3.6 0 -0.4 0.8 -1.7 1.7 -2.8 1.2 -1.5 1.4 -1.6 1 -0.3 -0.3 0.9 -0.1 1.9 0.6 2.1 0.8 0.3 0.5 1.6 -1.1 4.3 -4.6 7.9 -8 15.6 -13.6 30.8 -3.5 9.7 -4.7 14.9 -2.6 11.6 0.9 -1.3 1 -1.3 0.9 0 0 0.8 -0.4 2.4 -0.9 3.5 l-0.9 2 -0.1 -2 c-0.1 -1.6 -0.4 -1.4 -1.2 0.9 -0.8 2.1 -0.7 3 0.2 3.6 0.7 0.4 1.1 1.3 0.9 1.9 -0.3 0.9 -0.8 0.8 -1.7 -0.1z"/>
  <path d="M207.1 342.2 c-0.1 -1.2 -0.5 -3 -1 -4 -2.6 -5.2 -3.3 -7.1 -2.7 -8.1 0.4 -0.6 0.3 -1.1 -0.2 -1.1 -0.5 0 -1.7 -2.4 -2.6 -5.2 l-1.6 -5.3 0.5 4.5 c0.2 2.5 0.7 5.7 1.1 7.3 0.5 2 0.3 2.7 -0.9 2.7 -1.8 0 -7.5 -12.8 -6.1 -13.8 0.5 -0.4 0.9 -1.3 1 -1.9 0.3 -3.7 0.5 -4.3 1.3 -4.3 0.5 0 1.1 0.8 1.3 1.8 0.3 0.9 0.5 -0.4 0.6 -3 0.1 -2.6 -0.2 -4.9 -0.6 -5.2 -0.4 -0.2 -0.7 -7.9 -0.7 -17 0 -16 0.1 -16.5 2.4 -19 1.6 -1.7 3.5 -2.6 5.5 -2.6 l3 0 -3 3.3 c-4.8 5.1 -5.6 7.8 -3.8 13.6 1.5 5.3 3.5 7.1 8 7.1 2.5 0 2.6 0.2 2 3.9 -0.4 2.6 -0.2 4.2 0.6 4.7 0.7 0.4 0.8 0.3 0.4 -0.4 -0.4 -0.7 -0.2 -1.2 0.4 -1.2 0.6 0 0.9 -0.3 0.7 -0.7 -0.6 -1.1 1 -5.3 2 -5.3 0.4 0 0.8 1.1 0.8 2.4 0 1.3 -0.3 2.2 -0.7 2 -1 -0.6 -2 3.4 -1.2 4.7 0.4 0.7 0.3 0.9 -0.4 0.5 -0.6 -0.3 -1.4 0.4 -1.8 1.6 -0.4 1.3 -1.5 2.8 -2.4 3.5 -2.1 1.5 -3.4 5.4 -1.5 4.7 0.7 -0.3 1.5 0.2 1.9 1.1 0.7 1.9 0 3.5 -1.5 3.5 -0.6 0 -0.7 -0.5 -0.3 -1.2 0.4 -0.6 0.3 -0.8 -0.3 -0.5 -0.6 0.4 -0.9 2.4 -0.6 4.4 1.4 13.5 1.5 14.4 0.2 15.9 -1.1 1.4 -1 1.8 0.4 2.9 1.3 1 1.5 1.8 0.8 3.6 l-1 2.4 0 -2.3z m-3.8 -34.2 c0.5 -2.1 -0.7 -3.5 -2.2 -2.6 -1 0.7 -0.3 4.6 0.9 4.6 0.4 0 1 -0.9 1.3 -2z"/>
  <path d="M200 338.1 c0 -0.5 0.6 -1.2 1.3 -1.4 0.7 -0.3 0.5 -0.6 -0.5 -0.6 -2.1 -0.1 -2.5 -2.1 -0.4 -2.1 1.3 0 2.6 2 2.6 4.1 0 0.5 -0.7 0.9 -1.5 0.9 -0.8 0 -1.5 -0.4 -1.5 -0.9z"/>
  <path d="M227.7 336.3 c-0.3 -0.4 -0.8 -2.5 -1.2 -4.6 -0.4 -2 -1.1 -3.7 -1.6 -3.7 -0.5 0 -0.9 -1.2 -0.9 -2.6 0 -2.2 0.4 -2.5 2 -2.1 1.8 0.4 2 0.2 1.4 -1.6 -0.4 -1.2 -1 -2.4 -1.4 -2.7 -1.4 -1 -1.8 -3.9 -0.7 -4.4 0.7 -0.2 0.5 -0.5 -0.4 -0.5 -0.9 -0.1 -2.2 -1.4 -2.9 -3 -1.5 -3.7 0.2 -6.8 4 -7.3 2.3 -0.3 2.6 -0.1 2.2 1.8 -0.2 1.2 0.1 2.5 0.7 2.8 0.6 0.4 0.9 0.2 0.6 -0.6 -0.8 -2.1 1.2 -4.5 2.5 -3.2 0.8 0.8 0.8 1.4 0.1 1.8 -1.8 1.1 0 3.6 2.5 3.6 2.4 0 2.4 0.2 2 5.8 -0.3 3.1 -0.6 5.9 -0.7 6.2 -0.1 0.3 -0.1 0.9 0 1.4 0.1 0.4 -0.2 1.3 -0.7 2 -0.6 0.6 -1.3 2.5 -1.6 4.2 -0.7 3.3 -5 8.2 -5.9 6.7z"/>
  <path d="M123.1 331 c-0.1 -1.4 -0.5 -4.3 -0.7 -6.5 -0.7 -5.3 0.2 -8.3 2.3 -8.1 0.9 0 2.4 -1.1 3.2 -2.6 1.4 -2.4 1.4 -2.8 -0.3 -4.7 -1.9 -2.1 -1.9 -2.1 1 -2.1 5.7 0 7.1 4.1 2.8 8.1 -4.6 4.3 -6.9 8.3 -7.5 13.4 -0.3 2.7 -0.7 3.9 -0.8 2.5z"/>
  <path d="M401.6 321.6 c-0.9 -3.4 -0.7 -23.6 0.3 -23.6 0.4 0 0.8 1.5 0.8 3.3 -0.3 9 0.4 17.8 1.2 17.2 0.5 -0.3 0.9 0.7 0.9 2.3 -0.1 3.3 -2.4 3.9 -3.2 0.8z"/>
  <path d="M92 318.3 c0 -0.3 0.5 -1.4 1.2 -2.6 0.7 -1.2 1.3 -2.8 1.4 -3.6 0.2 -0.7 0.8 -1.9 1.4 -2.5 0.8 -0.8 1 -0.4 0.8 1.4 -0.2 1.4 -0.9 3 -1.7 3.6 -0.8 0.6 -1.2 1.8 -0.9 2.6 0.4 0.9 0 1.5 -0.8 1.5 -0.8 0 -1.4 -0.2 -1.4 -0.4z"/>
  <path d="M161.6 313.4 c-0.7 -1.8 0.1 -3.7 1.3 -2.9 0.5 0.2 1.1 1.4 1.4 2.5 0.6 2.4 -1.8 2.8 -2.7 0.4z"/>
  <path d="M97.1 307.7 c-0.2 -2.1 3.3 -7.7 4.8 -7.7 1.3 0.1 1.3 0.3 -0.4 1.5 -1 0.9 -2.5 2.8 -3.1 4.3 -0.7 1.5 -1.3 2.3 -1.3 1.9z"/>
  <path d="M240.7 307.4 c-1.4 -1.4 -0.7 -2.4 2.6 -4 3.9 -1.8 5.5 -4.9 8.7 -15.6 3.3 -11 5 -10.4 5 1.6 0 9.1 -0.1 9.4 -2.7 11.1 -1.4 1 -3.6 2.8 -4.7 4 -2.2 2.3 -7.7 4.1 -8.9 2.9z"/>
  <path d="M307.3 305.4 c-1 -2.2 -1 -2.4 0.3 -1.4 0.8 0.7 1.4 0.8 1.4 0.3 0 -1.4 -3.5 -4.4 -4.3 -3.8 -0.4 0.3 -0.5 0.2 -0.2 -0.2 0.3 -0.3 -0.3 -1.5 -1.2 -2.5 -1.8 -2 -1.9 -6.4 -0.4 -16.8 l0.9 -5.5 0.1 8.2 c0.1 8.3 2.7 16.6 5.9 18.6 1.5 1 1.6 3.7 0.1 3.7 -0.5 0 -0.7 0.5 -0.4 1 0.3 0.6 0.3 1 -0.2 1 -0.4 0 -1.3 -1.2 -2 -2.6z"/>
  <path d="M152.2 296.3 c-1.8 -3 -3 -5.9 -2.7 -6.3 0.8 -1.2 6 0.8 8 3 1.2 1.3 1.5 2.7 1 4.8 -1 4.8 -2.8 4.4 -6.3 -1.5z"/>
  <path d="M231.5 300.8 c0.2 -0.7 0.9 -3.2 1.5 -5.5 0.6 -2.4 1.6 -4.3 2.2 -4.3 0.7 0 0.7 0.4 0 1.3 -0.6 0.7 -1.4 3.2 -1.8 5.5 -0.4 2.3 -1 4.2 -1.5 4.2 -0.5 0 -0.6 -0.6 -0.4 -1.2z"/>
  <path d="M401 294.5 c-0.2 -1.1 -0.3 -2.5 -0.3 -3.2 0 -0.6 -0.5 -0.9 -1.2 -0.7 -1.6 0.6 -1.3 -7.8 0.4 -12 0.9 -2.3 0.8 -4.9 -1 -14 -1.2 -6.1 -2.5 -13.8 -2.9 -17.1 -0.4 -3.3 -1.1 -8.4 -1.5 -11.2 -0.8 -5.2 -0.7 -5.3 1.8 -5.3 1.4 0 2.9 0.5 3.2 1.1 0.4 0.6 1.8 6.2 3.1 12.6 2.9 13.9 3.4 35.4 1 38.9 -0.8 1.1 -1.7 4.5 -1.9 7.5 -0.2 3 -0.5 4.5 -0.7 3.4z"/>
  <path d="M105.6 293 c0.3 -1.4 1.1 -3.1 1.7 -3.9 0.6 -0.7 1.2 -1.8 1.3 -2.5 0.1 -0.6 0.5 -1.9 0.9 -2.8 1.1 -2.7 -2.1 -3.4 -4.7 -1.2 -1.2 1.1 -0.7 0 1.2 -2.3 3 -3.9 5 -5.7 3.5 -3.3 -0.3 0.6 0 1 0.7 1.1 0.8 0 0.7 0.3 -0.3 0.7 -1.4 0.6 -1.5 0.9 -0.4 1.9 1.1 1 1.9 0.5 4 -2.2 3.1 -4.2 6.6 -5.1 3.9 -1 -0.8 1.3 -1.3 2.8 -1 3.3 0.3 0.5 -0.9 1.7 -2.7 2.6 -1.7 0.8 -2.7 1.6 -2.2 1.6 0.6 0 0.6 0.3 -0.1 0.8 -0.6 0.4 -2.3 2.7 -3.8 5.2 -1.7 2.8 -2.5 3.5 -2 2z"/>
  <path d="M188 293 c0 -0.5 -1.6 -2.8 -3.7 -5 -2.8 -3.2 -3.7 -5.1 -4.1 -9 -0.6 -6.4 0.8 -6.5 5.1 -0.4 5.2 7.3 7.4 15.4 4.2 15.4 -0.8 0 -1.5 -0.4 -1.5 -1z"/>
  <path d="M140 282 c0 -0.5 0.7 -1 1.5 -1 0.8 0 1.5 0.5 1.5 1 0 0.6 -0.7 1 -1.5 1 -0.8 0 -1.5 -0.4 -1.5 -1z"/>
  <path d="M230.2 280.8 c-0.5 -0.7 -1.3 -2.7 -1.6 -4.3 -0.8 -3.6 2 -6.9 6.6 -8 2.7 -0.7 2.8 -0.6 2.2 2.6 -1.5 8.4 -2.5 10.9 -4.3 10.9 -1 0 -2.3 -0.6 -2.9 -1.2z"/>
  <path d="M259.1 278.8 c-0.1 -1.6 0.4 -2.8 0.9 -2.8 1.2 0 1.2 0.8 0 3.5 -0.8 1.8 -0.9 1.7 -0.9 -0.7z"/>
  <path d="M115.2 273.1 l-3.3 -0.6 4.1 -5.5 c2.3 -3 6.4 -10.2 9.2 -16 6 -12.6 6.6 -13.4 8.4 -11.9 1.6 1.3 1 3 -4 11.7 -3.9 7 -4 7.2 -2.7 7.2 0.5 0 1.3 -0.9 1.6 -2.1 0.4 -1.1 0.9 -1.8 1.2 -1.6 0.8 0.8 -3.7 8.8 -4.6 8.2 -0.5 -0.3 -0.7 0.3 -0.4 1.4 0.3 1.3 -0.2 2 -1.7 2.4 -1.6 0.4 -2 1.1 -1.6 2.5 0.9 2.8 -2.2 4.9 -6.2 4.3z"/>
  <path d="M209 267 c-1.2 -0.8 -1 -1 1.1 -1 1.4 0 2.9 -0.4 3.5 -0.9 0.5 -0.4 2.4 -1.1 4.3 -1.5 l3.5 -0.6 -2.4 2.5 c-2.5 2.6 -7.2 3.3 -10 1.5z"/>
  <path d="M258.1 266.3 c-0.1 -1.3 -0.5 -2.3 -1.1 -2.3 -0.6 0 -1 -3 -1 -7 0 -5.6 0.3 -7 1.5 -7 0.8 0 1.5 -0.9 1.5 -2 0 -1.1 -0.7 -2 -1.5 -2 -2.8 0 -1.4 -7.5 1.6 -8.3 1.8 -0.5 1.9 0 1.2 12.6 -0.6 12.1 -2 22.1 -2.2 16z"/>
  <path d="M394 264.5 c0 -0.8 0.7 -1.5 1.5 -1.5 0.8 0 1.5 0.7 1.5 1.5 0 0.8 -0.7 1.5 -1.5 1.5 -0.8 0 -1.5 -0.7 -1.5 -1.5z"/>
  <path d="M302 262.4 c0 -1.4 0.4 -2.3 0.9 -2 0.5 0.3 0.7 1.5 0.4 2.6 -0.7 2.8 -1.3 2.5 -1.3 -0.6z"/>
  <path d="M303.1 256.3 c-0.1 -1.8 0.4 -3.3 0.9 -3.3 1.2 0 1.2 1.7 0 4.5 -0.7 1.7 -0.9 1.5 -0.9 -1.2z"/>
  <path d="M235.3 256.2 c-0.8 -0.5 0.2 -2.1 2.9 -5 2.5 -2.8 3.7 -3.6 3.3 -2.3 -0.4 1.2 -0.2 2.1 0.4 2.1 0.6 0 1.1 0.7 1.1 1.5 0 1.3 -0.4 1.4 -2 0.5 -1.1 -0.6 -2 -0.7 -2 -0.2 0 1.7 -2.5 4.1 -3.7 3.4z"/>
  <path d="M23.6 253.3 c-0.4 -1.1 -1.5 -2.8 -2.6 -3.8 -1.1 -1 -2 -2.9 -2 -4.2 0 -4.9 12.1 -32.5 15.5 -35.3 1.2 -1 2 -0.9 3.8 0.3 1.3 0.8 3.7 1.7 5.3 1.9 3.8 0.4 4.3 3.9 1.5 11.3 -2.3 6.1 -2.6 9.6 -1.1 11.1 1.3 1.3 -4.8 14.1 -8.3 17.3 -1.6 1.4 -4.3 2.5 -7 2.8 -3.8 0.5 -4.6 0.2 -5.1 -1.4z"/>
  <path d="M262.2 245 c0 -5.8 1 -10.3 1.9 -8.9 1.3 2.1 1 6.1 -0.6 8.9 l-1.4 2.5 0.1 -2.5z"/>
  <path d="M136.6 241 c0.8 -3.1 2.4 -5 2.4 -2.9 0 0.8 -0.7 2.4 -1.6 3.5 -1.4 1.8 -1.5 1.8 -0.8 -0.6z"/>
  <path d="M133.5 237.3 c-0.8 -2.2 7.5 -18.8 10.6 -21.3 0.4 -0.3 1.6 -2.4 2.7 -4.6 1.2 -2.3 2.7 -4.8 3.4 -5.5 0.7 -0.8 1.9 -2.5 2.6 -3.9 0.7 -1.4 2.2 -3.6 3.2 -5 1.8 -2.4 -10.9 24.6 -15.1 32 -1.1 1.9 -2.5 4.7 -3 6.2 -1.2 3.2 -3.5 4.3 -4.4 2.1z"/>
  <path d="M252.9 232 c2.2 -3.7 2.8 -6.5 1.1 -5.5 -0.5 0.3 0 -1.5 1.1 -4 1.1 -2.5 2.4 -6.4 2.9 -8.8 l0.9 -4.2 -0.3 5.3 c-0.2 4 0 5 0.9 4.2 0.7 -0.6 1.5 -2.9 1.8 -5.1 0.6 -4.8 1.1 -5.4 3.3 -4.5 2.1 0.8 1.3 6.9 -1.6 12.3 -1.2 2.3 -1.7 4.6 -1.3 6.5 0.4 2.2 0.2 2.7 -0.9 2.3 -0.8 -0.3 -2.1 0.1 -2.8 1 -0.7 0.8 -2 1.5 -2.9 1.5 -0.9 0 -2.3 0.6 -3 1.3 -0.7 0.6 -0.4 -0.4 0.8 -2.3z"/>
  <path d="M311.5 227.5 c1.5 -7.4 9.8 -25.5 11.1 -24.2 0.4 0.4 -6.4 16.6 -9.7 23.2 -1.7 3.5 -1.9 3.7 -1.4 1z"/>
  <path d="M148.1 224.3 c-0.1 -0.7 -0.8 -1.3 -1.6 -1.3 -1.2 0 -1 -1 1 -5 1.4 -2.7 3.2 -5 4 -5 1.2 0 1.2 0.7 -0.4 4.8 -1 2.6 -2.1 5.4 -2.4 6.2 -0.3 0.9 -0.6 1 -0.6 0.3z"/>
  <path d="M390 223.1 c0 -1.5 -0.6 -1.9 -2.6 -1.8 -2.2 0.2 -2.8 -0.5 -4.5 -4.8 -1.1 -2.7 -2.6 -5.5 -3.3 -6 -1.6 -1.2 -3.2 -7.5 -1.9 -7.5 2.3 0 7.3 6.4 7.9 10 0.4 2.2 1.2 4.7 1.9 5.6 1 1.5 1.1 1.2 0.8 -1.7 -0.3 -2.4 -0.1 -3 0.5 -1.9 1.2 1.8 2.6 10 1.8 10 -0.3 0 -0.6 -0.9 -0.6 -1.9z"/>
  <path d="M151.5 211 c-0.3 -0.5 -0.1 -1 0.5 -1 0.6 0 0.8 -0.4 0.5 -1 -0.3 -0.5 0.1 -1 0.9 -1 1.8 0 1.9 0.2 1 2.4 -0.7 1.8 -2 2.1 -2.9 0.6z"/>
  <path d="M258.2 203 c-1.1 -2.6 -1.6 -4.9 -1.1 -5.4 1.1 -1.2 1.7 -0.6 2.2 2 0.2 1 0.7 2.7 1.1 3.6 0.5 1 0.6 2.3 0.3 3 -0.3 0.7 -1.4 -0.7 -2.5 -3.2z"/>
  <path d="M155.5 203.1 c-0.3 -0.6 -0.1 -1.1 0.6 -1.1 0.7 0 0.9 -0.3 0.6 -0.6 -0.8 -0.8 2.4 -6.4 3.5 -6.4 0.5 0 -0.1 1.9 -1.3 4.3 -2.6 5.2 -2.6 5.1 -3.4 3.8z"/>
  <path d="M243 195.6 c0 -0.9 0.7 -1.6 1.6 -1.6 0.9 0 1.4 0.5 1.2 1.2 -0.6 1.8 -2.8 2.1 -2.8 0.4z"/>
  <path d="M259.1 191.4 c-2.1 -2.1 -2.8 -3.4 -1.9 -3.4 1.4 0 6.4 5.8 5.6 6.5 -0.2 0.2 -1.9 -1.2 -3.7 -3.1z"/>
  <path d="M368.6 192.1 c-2.3 -2.4 -2.7 -3.4 -2.1 -6.1 0.8 -3.6 -1.6 -7 -6.6 -9 -1.6 -0.7 -2.9 -1.7 -2.9 -2.2 0 -0.5 -0.3 -0.7 -0.8 -0.4 -0.4 0.2 -1.5 -0.2 -2.5 -0.9 -1.3 -0.9 -1.5 -1.5 -0.7 -2 0.6 -0.4 2.4 0.4 3.8 1.8 1.5 1.4 4.6 3.4 6.8 4.5 5.3 2.7 9.4 7.6 9.4 11.2 0 1.6 0.3 3.5 0.6 4.4 1 2.6 -2 1.9 -5 -1.3z"/>
  <path d="M252 192 c0 -0.5 0.6 -1 1.4 -1 0.8 0 1.8 0.5 2.1 1 0.3 0.6 -0.3 1 -1.4 1 -1.2 0 -2.1 -0.4 -2.1 -1z"/>
  <path d="M250.7 175.8 c-3.2 -5.8 -2.8 -7.6 0.8 -3.3 2.9 3.6 4 6.4 2.8 7.5 -0.4 0.5 -2.1 -1.4 -3.6 -4.2z"/>
  <path d="M324.1 169 c-0.1 -2.1 1.6 -4.6 2.6 -3.7 0.4 0.5 0.3 1.1 -0.3 1.5 -0.6 0.4 -1.4 1.4 -1.7 2.2 -0.5 1.3 -0.5 1.3 -0.6 0z"/>
  <path d="M180 166.4 c0 -0.6 1.9 -2.9 4.3 -5.2 2.9 -2.8 5.1 -4.2 7 -4.2 4.2 0 3.2 1.7 -2.5 4.6 -2.9 1.4 -6.1 3.3 -7 4.2 -1 0.8 -1.8 1.1 -1.8 0.6z"/>
  <path d="M334 162.1 c0 -0.5 -1 -1.2 -2.2 -1.4 -2 -0.4 -1.9 -0.4 0.5 -0.6 1.8 -0.1 2.7 0.4 2.7 1.4 0 0.8 -0.2 1.5 -0.5 1.5 -0.3 0 -0.5 -0.4 -0.5 -0.9z"/>
  <path d="M233.5 161 c-0.3 -0.5 0.3 -1 1.4 -1 1.2 0 2.1 0.5 2.1 1 0 0.6 -0.6 1 -1.4 1 -0.8 0 -1.8 -0.4 -2.1 -1z"/>
  <path d="M214 158.1 c-2.5 -0.7 -2.5 -0.7 0.5 -1.2 1.7 -0.3 4.1 -0.2 5.5 0.1 l2.5 0.6 -2.5 0.7 c-2.8 0.8 -2.6 0.8 -6 -0.2z"/>
 </g>
 <g fill="#f8eec2">
  <path d="M102.5 489 c-0.9 -1.4 6.6 -8.7 9.8 -9.5 2.4 -0.6 2.7 -0.4 2.7 1.8 0 1.7 -0.7 2.8 -2 3.2 -1.1 0.3 -2 1 -2 1.5 0 1 -5.2 4 -6.9 4 -0.5 0 -1.3 -0.4 -1.6 -1z"/>
  <path d="M148.5 478 c-1 -1.1 -1.6 -2.1 -1.4 -2.3 4 -2.8 9.1 -5.7 10 -5.7 0.6 0 0.9 -0.6 0.6 -1.4 -0.3 -0.8 0.1 -2 0.9 -2.6 0.8 -0.7 1.4 -2.1 1.4 -3.1 0 -2.5 1.5 -2.4 3.4 0.3 2 2.8 2 6.2 0.1 7.8 -0.8 0.7 -1.5 2.1 -1.5 3.1 0 1.4 -0.7 1.9 -2.6 1.9 -1.4 0 -3.7 0.9 -5.1 2 -3.2 2.5 -3.6 2.5 -5.8 0z"/>
  <path d="M324.9 475.4 c-0.6 -0.8 -2.2 -1.4 -3.4 -1.4 -1.8 0 -2.4 -0.7 -2.9 -3.7 -0.4 -2.1 -1.2 -5 -1.7 -6.5 -0.6 -1.4 -0.9 -3.5 -0.6 -4.5 0.3 -1.5 0.6 -1.3 1.6 1 0.6 1.6 2 3.1 3.1 3.4 1.1 0.3 2 1.3 2 2.2 0.1 2.2 7.8 7.5 10.7 7.3 3 -0.2 3 1.6 0.1 2.2 -6 1.2 -7.9 1.2 -8.9 0z"/>
  <path d="M389.7 473.4 c-0.4 -0.4 -0.4 -1 -0.1 -1.5 0.6 -1 3.4 0 3.4 1.2 0 1 -2.4 1.2 -3.3 0.3z"/>
  <path d="M116.5 472 c-0.8 -1.2 5.4 -8.8 7.3 -8.9 2 -0.2 1.4 5.7 -0.8 7.9 -2.2 2.2 -5.5 2.6 -6.5 1z"/>
  <path d="M382 467.5 c0 -0.8 0.5 -1.5 1 -1.5 0.6 0 1 0.7 1 1.5 0 0.8 -0.4 1.5 -1 1.5 -0.5 0 -1 -0.7 -1 -1.5z"/>
  <path d="M115.7 446.2 c-3.6 -3.9 -4.9 -12 -2.3 -14.1 1.1 -0.9 1.8 -0.6 3.5 1.5 1.2 1.5 2.1 3.4 2.2 4.3 0.7 10.3 0 12 -3.4 8.3z"/>
  <path d="M418.3 440.3 c-1.6 -0.6 -1.7 -3.3 -0.3 -3.3 1.1 0 2.6 2.8 1.9 3.4 -0.2 0.2 -1 0.1 -1.6 -0.1z"/>
  <path d="M71.2 435.7 c-0.7 -1.9 -1.5 -6 -1.8 -8.9 -0.4 -5 -0.4 -5.1 0.8 -2.3 0.9 2.2 1.8 3 3.2 2.7 1.6 -0.3 1.8 0 1.1 1.9 -0.4 1.3 -1 4.2 -1.3 6.3 l-0.7 3.9 -1.3 -3.6z"/>
  <path d="M206.2 435.8 c0.5 -1.5 8.8 -2.4 8.8 -1 0 1.3 -2.5 2.2 -6.2 2.2 -1.9 0 -2.8 -0.4 -2.6 -1.2z"/>
  <path d="M371.7 429.2 c-3.6 -1.7 -3.7 -1.8 -2.2 -4 1.4 -1.9 2.4 -2.2 6.2 -1.9 3.1 0.3 6.1 -0.2 9.4 -1.6 2.7 -1.2 5.1 -1.8 5.5 -1.5 1.3 1.4 -1 5.1 -4.8 7.9 -4.7 3.3 -8.4 3.6 -14.1 1.1z"/>
  <path d="M321.3 397.1 c-2.2 -0.6 -2.2 -0.6 -0.5 -4.5 l1.8 -4 1.3 3.1 c1.6 3.9 0.5 6.2 -2.6 5.4z"/>
  <path d="M400 382.5 c0 -1.1 0.7 -7.4 1.5 -14 0.8 -6.6 1.5 -13.7 1.5 -15.7 0 -2.9 0.3 -3.6 1.5 -3.2 1.1 0.5 1.3 2.2 0.9 8.7 -0.8 11.8 -2.4 21.9 -4 24.2 -1.4 1.9 -1.4 1.9 -1.4 0z"/>
  <path d="M221.3 380.8 c-2.3 -2.6 -3.8 -6.4 -5.2 -12.6 -0.8 -3.6 -0.7 -4.1 0.5 -3.1 0.8 0.6 1.4 1.7 1.4 2.4 0 0.7 0.9 3.2 2 5.7 2 4.5 5.1 6.8 9.3 6.8 2.1 0.1 2.2 0.1 0.3 1.5 -2.8 2.1 -5.9 1.8 -8.3 -0.7z"/>
  <path d="M77 358 c0 -1.1 0.4 -2 0.8 -2 0.4 0 0.8 0.9 0.8 2 0 1.1 -0.4 2 -0.8 2 -0.4 0 -0.8 -0.9 -0.8 -2z"/>
  <path d="M79.8 346 c-0.8 -2.5 2.8 -16.5 4.3 -16.5 0.8 0 1.3 0.6 1.1 1.4 -1.4 6.3 -1.4 7.4 -0.4 6.8 0.6 -0.5 0.8 0.1 0.4 1.5 -0.4 1.5 -0.7 1.8 -1 0.8 -0.3 -0.8 -1.2 0.5 -2.2 3 -0.9 2.4 -1.9 3.8 -2.2 3z"/>
  <path d="M401 328.9 c0 -2.2 0.4 -3.8 0.8 -3.5 0.8 0.5 0.4 7.6 -0.4 7.6 -0.2 0 -0.4 -1.8 -0.4 -4.1z"/>
  <path d="M195.6 323.3 c-0.4 -1 -0.1 -2.2 0.7 -2.8 0.7 -0.5 1.4 -2.6 1.4 -4.5 0.2 -8.4 0.3 -8.7 1.4 -6.7 1.5 2.6 0.1 15.7 -1.6 15.7 -0.7 0 -1.6 -0.8 -1.9 -1.7z"/>
  <path d="M401.2 316.3 c-0.1 -2.7 0.3 -5.5 0.8 -6.3 0.7 -1.1 0.9 0.2 0.7 4.2 -0.4 7.2 -1.3 8.4 -1.5 2.1z"/>
  <path d="M88.8 316.3 c-1.9 -0.5 -2.3 -2 -1 -3.9 0.5 -0.8 1.3 -0.5 2.6 0.7 1.8 1.7 1.7 1.8 -0.5 1.2 -2.4 -0.5 -2.4 -0.5 -0.4 1 2.1 1.7 2.1 1.7 -0.7 1z"/>
  <path d="M197 307 c-0.8 -2.8 -0.9 -5.4 -0.3 -10.5 0.5 -4.8 0.8 -5.5 1.4 -3.5 1 3.4 0.9 10.1 -0.1 12.5 -0.5 1.1 -0.9 1.8 -1 1.5z"/>
  <path d="M118 303.6 c0 -0.3 0.4 -1.6 1 -3 1.3 -3.5 3 -3.3 3 0.4 0 2.3 -0.4 3 -2 3 -1.1 0 -2 -0.2 -2 -0.4z"/>
  <path d="M254.3 298.3 c-1.8 -0.7 -1.7 -8.3 0.1 -8.3 1.7 0 2.6 2.2 2.6 6.1 0 2.9 -0.4 3.2 -2.7 2.2z"/>
  <path d="M152.3 296.5 c-0.7 -2 0.2 -2.9 2.1 -2.2 0.9 0.4 1.3 1.3 1 2.2 -0.8 1.9 -2.3 1.9 -3.1 0z"/>
  <path d="M401.2 294 c0 -1.9 0.2 -2.7 0.5 -1.7 0.2 0.9 0.2 2.5 0 3.5 -0.3 0.9 -0.5 0.1 -0.5 -1.8z"/>
  <path d="M190 290.7 c0 -0.9 -0.6 -1.7 -1.2 -1.7 -2.3 0 -8.7 -11.4 -7.3 -12.8 0.3 -0.3 1.9 0.7 3.5 2.3 2.9 2.8 6.8 12 5.6 13.2 -0.3 0.4 -0.6 -0.1 -0.6 -1z"/>
  <path d="M196.2 281 c0 -1.9 0.2 -2.7 0.5 -1.7 0.2 0.9 0.2 2.5 0 3.5 -0.3 0.9 -0.5 0.1 -0.5 -1.8z"/>
  <path d="M197 274.3 c0 -1.1 0.7 -2.7 1.6 -3.4 1.5 -1.2 1.6 -1.1 0.9 1.1 -1 3.5 -2.5 4.9 -2.5 2.3z"/>
  <path d="M302.3 266.5 c0 -2.2 0.2 -3 0.4 -1.7 0.2 1.2 0.2 3 0 4 -0.3 0.9 -0.5 -0.1 -0.4 -2.3z"/>
  <path d="M303 255.5 c0 -1.4 0.4 -2.5 0.9 -2.5 0.4 0 0.6 1.1 0.3 2.5 -0.2 1.4 -0.6 2.5 -0.8 2.5 -0.2 0 -0.4 -1.1 -0.4 -2.5z"/>
  <path d="M23.6 253.2 c-0.8 -1.6 -2.2 -3.4 -3 -4.1 -2.3 -1.9 -2 -5.2 1.5 -14.2 6.1 -15.9 7.7 -17 2.9 -2.1 -4 12.5 -4 15.6 0.5 17.9 4.2 2.2 9.4 -2.4 13.6 -12 1.3 -3.1 2.6 -5.7 2.9 -5.7 0.3 0.1 1.4 0.8 2.5 1.6 1.4 1.1 1.6 1.8 0.8 2.1 -0.7 0.3 -1.3 1 -1.3 1.6 0 2.7 -5.2 12 -8.2 14.7 -4.5 4.2 -10.1 4.2 -12.2 0.2z"/>
  <path d="M263 239.5 c0 -1.4 0.4 -2.5 0.9 -2.5 0.5 0 0.9 1.1 0.9 2.5 0 1.4 -0.4 2.5 -0.9 2.5 -0.5 0 -0.9 -1.1 -0.9 -2.5z"/>
  <path d="M394.7 236.3 c-0.4 -0.3 -0.7 -2.4 -0.7 -4.5 0 -3.1 0.3 -3.8 2 -3.8 1.3 0 2.5 1.2 3.5 3.7 1.8 4.3 1.4 5 -2.1 3.4 -2.3 -1 -2.6 -0.9 -2.1 0.4 0.7 1.6 0.4 1.9 -0.6 0.8z"/>
  <path d="M143.6 216.3 c1 -1.6 3.3 -5.3 5.1 -8.3 1.8 -3 4.2 -6.6 5.4 -8 1.7 -2.1 1.6 -1.6 -0.6 3 -1.4 3 -3.3 6.8 -4.1 8.3 -0.9 1.5 -1.3 3.5 -1 4.3 0.4 1 0.2 1.3 -0.6 0.8 -0.7 -0.5 -0.9 -0.2 -0.6 0.7 0.4 1.1 -0.3 1.6 -2.4 1.7 l-3.1 0.3 1.9 -2.8z"/>
  <path d="M43.2 215 c-0.7 -1.1 -2.1 -2 -3.1 -2 -1.1 0 -2.3 -0.5 -2.7 -1.1 -0.3 -0.6 -1.5 -0.8 -2.7 -0.5 -1.9 0.5 -1.9 0.4 -0.4 -1.1 1.4 -1.5 1.8 -1.5 4 0 1.3 0.8 3.7 1.7 5.3 1.9 2.1 0.2 3 0.9 3.2 2.6 0.4 2.8 -1.9 2.9 -3.6 0.2z"/>
  <path d="M263.5 214 c1.7 -0.7 1.7 -0.9 0.3 -0.9 -1.4 -0.1 -1.8 -1 -1.8 -4.1 0 -3.8 0.1 -3.9 2 -2.8 1.4 0.9 2 2.4 2 5 0 3.3 -0.3 3.8 -2.2 3.7 -2.2 0 -2.2 -0.1 -0.3 -0.9z"/>
  <path d="M152.7 211.3 c-0.7 -1.1 1 -4 1.8 -3.1 0.4 0.4 0.3 1.4 -0.3 2.4 -0.5 0.9 -1.2 1.2 -1.5 0.7z"/>
  <path d="M260 207 c-0.1 -0.3 -0.4 -1.5 -0.5 -2.8 -0.1 -1.5 0.1 -2 0.7 -1.4 0.6 0.6 0.8 1.8 0.5 2.8 -0.3 1.1 -0.6 1.7 -0.7 1.4z"/>
  <path d="M157.1 200.5 c0 -0.5 0.6 -2.1 1.4 -3.5 0.8 -1.4 1.4 -2 1.4 -1.5 0 0.6 -0.6 2.1 -1.4 3.5 -0.8 1.4 -1.4 2.1 -1.4 1.5z"/>
  <path d="M364 178.9 l-2.5 -2 3.3 1.6 c1.7 0.8 3.2 1.8 3.2 2 0 1 -1.6 0.4 -4 -1.6z"/>
  <path d="M187.2 160.4 c-0.9 -1 -0.4 -1.9 2.1 -4 6.4 -5.4 11.6 -6.4 19.2 -3.4 l2.9 1.1 -2.4 1.4 c-5.7 3.3 -8.7 4.2 -11.7 3.8 -1.7 -0.3 -4.5 0.1 -6 0.9 -2.3 1.2 -3.1 1.2 -4.1 0.2z"/>
 </g>
 <g fill="#fbf2cf">
  <path d="M105.6 488.2 c-0.3 -0.5 0.8 -2.3 2.4 -4 3 -3.3 7 -4.3 7 -1.7 0 0.8 -0.4 1.5 -0.9 1.5 -0.4 0 -2 1.1 -3.5 2.5 -2.8 2.6 -4.1 3.1 -5 1.7z"/>
  <path d="M156.4 481 c-5.7 -0.8 -7.4 -1.6 -7.4 -3.1 0 -1.9 4.4 -4.8 7.3 -4.9 2 0 2.7 -0.5 2.7 -1.9 0 -1 0.7 -2.4 1.5 -3.1 0.8 -0.7 1.5 -1.9 1.5 -2.7 0 -0.8 0.6 -1.3 1.3 -1.1 1.9 0.7 2 4.8 0.1 6.9 -1.7 1.9 -1.7 2.3 -0.1 6.4 1.8 5.1 2.4 4.9 -6.9 3.5z"/>
  <path d="M320.7 475.6 c-0.9 -1.2 -1.9 -4.1 -2.3 -6.2 -0.3 -2.1 -1.1 -4.7 -1.6 -5.7 -1.7 -3.2 -0.1 -3 1.8 0.2 1 1.7 2.5 3.1 3.4 3.2 0.9 0 1 0.2 0.3 0.5 -1.6 0.7 -0.5 3.4 1.1 2.8 1.3 -0.5 6.6 3.1 6.6 4.5 0 0.6 -5.7 3.1 -7.2 3.1 -0.3 0 -1.3 -1.1 -2.1 -2.4z"/>
  <path d="M117 471.9 c0 -1.3 5.8 -6.9 7.1 -6.9 1.7 0 0.9 4 -1.1 6 -2.1 2.1 -6 2.7 -6 0.9z"/>
  <path d="M115.3 440.8 c-0.6 -1.3 -0.7 -3.2 -0.3 -4.2 0.6 -1.8 0.7 -1.8 2.3 0.5 2 2.8 2.2 5.9 0.4 5.9 -0.8 0 -1.8 -1 -2.4 -2.2z"/>
  <path d="M209 436 c0 -0.5 0.9 -1 2 -1 1.1 0 2 0.5 2 1 0 0.6 -0.9 1 -2 1 -1.1 0 -2 -0.4 -2 -1z"/>
  <path d="M374.3 433.2 c-2.9 -1.1 -4.3 -2.2 -4.3 -3.4 0 -1 -0.5 -1.8 -1.1 -1.8 -0.8 0 -0.8 -0.4 0 -1.4 0.9 -1.1 2 -1.2 4.9 -0.4 5.6 1.4 7 1.2 10.8 -2.1 3.5 -3.1 6.4 -4 6.4 -2.1 0 1 -7.7 9.1 -11 11.6 -1.1 0.9 -2.6 0.8 -5.7 -0.4z"/>
  <path d="M221.2 380.7 c-1.2 -1.3 -2.2 -3.2 -2.2 -4.3 0.1 -1.6 0.3 -1.5 1.5 0.7 0.8 1.5 2.1 2.9 3 3.3 1.6 0.6 2.1 2.6 0.7 2.6 -0.5 0 -1.8 -1 -3 -2.3z"/>
  <path d="M119 305 c-1.1 -0.7 -1.2 -1.4 -0.4 -2.7 1.7 -2.7 3.4 -2.7 3.4 0.1 0 2.9 -1 3.8 -3 2.6z"/>
  <path d="M196.2 302.2 c-0.1 -2 0.2 -5.3 0.7 -7.2 0.8 -3.1 0.9 -2.7 1 3.2 0.1 6.9 -1.4 10.5 -1.7 4z"/>
  <path d="M254.7 297.1 c-1.7 -1.8 -1.7 -1.9 0.3 -2.4 1.6 -0.4 2 0 2 1.9 0 2.8 0 2.8 -2.3 0.5z"/>
  <path d="M184.7 282.9 c-1.6 -2.8 -2.6 -5.3 -2.3 -5.6 1 -1 4.8 2.9 6.2 6.4 1.7 4 1.7 4.3 0.2 4.3 -0.7 0 -2.6 -2.3 -4.1 -5.1z"/>
  <path d="M302.2 263 c0 -1.9 0.2 -2.7 0.5 -1.7 0.2 0.9 0.2 2.5 0 3.5 -0.3 0.9 -0.5 0.1 -0.5 -1.8z"/>
  <path d="M24.5 255 c-2 -3.9 -1.9 -4 1.3 -2.8 2.4 1 3.3 0.8 6.1 -1.3 3 -2.2 9.1 -12.6 9.1 -15.6 0 -1.5 1.8 -1.7 3.9 -0.4 1.6 1 0.7 5.5 -3.1 16.4 -2.4 6.8 -2.5 6.8 -4 4.5 -1.5 -2.1 -1.8 -2.2 -3.9 -0.9 -1.2 0.7 -3.5 1.7 -5.1 2.2 -2.5 0.7 -3 0.4 -4.3 -2.1z"/>
  <path d="M19.8 248.4 c-1.5 -1.5 -0.7 -6 2.7 -14.4 1.8 -4.7 3.4 -8 3.4 -7.3 0.1 0.7 -0.9 3.6 -2 6.5 -1.2 2.9 -2.4 7.7 -2.8 10.6 -0.3 3 -0.9 5 -1.3 4.6z"/>
  <path d="M395 229 c-1.2 -0.8 -1.1 -1 0.7 -1 1.2 0 2.5 0.5 2.8 1 0.8 1.3 -1.5 1.3 -3.5 0z"/>
  <path d="M43 213 c-1.2 -0.8 -1.1 -1 0.7 -1 1.2 0 2.5 0.5 2.8 1 0.8 1.3 -1.5 1.3 -3.5 0z"/>
  <path d="M263 208 c0 -0.5 0.7 -1 1.5 -1 0.8 0 1.5 0.5 1.5 1 0 0.6 -0.7 1 -1.5 1 -0.8 0 -1.5 -0.4 -1.5 -1z"/>
  <path d="M190.5 155.4 c3 -2.5 8.1 -4.4 11.2 -4.3 2.7 0.2 2.7 0.2 0.3 0.6 -2.2 0.4 -4.5 1.3 -11.5 4.5 l-2 0.9 2 -1.7z"/>
  <path d="M205.9 153.4 c-1.2 -1.5 -1.1 -1.6 1.1 -0.9 4.6 1.4 5.8 2.4 2.9 2.5 -1.5 0 -3.3 -0.7 -4 -1.6z"/>
 </g>
</svg>